<svg version="1.1" xmlns="http://www.w3.org/2000/svg" xmlns:xlink="http://www.w3.org/1999/xlink" width="54.20586" height="57.79733" viewBox="0,0,54.20586,57.79733"><g transform="translate(-183.33931,-146.46368)"><g data-paper-data="{&quot;isPaintingLayer&quot;:true}" fill-rule="nonzero" stroke-linejoin="miter" stroke-miterlimit="10" stroke-dasharray="" stroke-dashoffset="0" style="mix-blend-mode: normal"><path d="M236.07759,173.26041c0,14.66135 -11.74595,26.54673 -26.23532,26.54673c-14.48937,0 -26.23532,-11.88538 -26.23532,-26.54673c0,-14.66135 11.74595,-26.54672 26.23532,-26.54672c14.48937,0 26.23532,11.88537 26.23532,26.54672z" fill="#b2cee0" stroke="#000000" stroke-width="0.5" stroke-linecap="butt"/><path d="M204.15924,193.65701c0,4.60048 -8.63522,10.354 -11.98884,10.354c-3.35362,0 -0.1557,-5.75352 -0.1557,-10.354c0,-4.60048 6.45543,-8.32991 9.80906,-8.32991c3.35362,0 2.33549,3.72943 2.33549,8.32991z" fill="#ffffff" stroke="#000000" stroke-width="0.5" stroke-linecap="butt"/><path d="M225.47242,181.61154c0,0 -4.47988,-10.41307 -7.8407,-15.44963c-1.60141,-2.39989 -3.4083,-4.53355 -5.2529,-5.60234c-1.17124,-0.67864 -3.51306,-2.86123 -6.03729,-2.48861c-1.53614,0.22677 -3.18895,1.22617 -4.41263,2.10159c-0.838,0.5995 -1.47475,1.14084 -1.73495,1.33607c-4.57684,3.43407 -7.84602,20.53118 -7.84602,20.53118z" fill="#ffffff" stroke="#000000" stroke-width="0.5" stroke-linecap="round"/><path d="" fill="#ff0000" stroke="none" stroke-width="0" stroke-linecap="butt"/><path d="M234.80787,164.88643c0.70687,0.6257 1.25209,3.41809 1.25209,8.66775c0,14.66135 -11.74595,26.54673 -26.23532,26.54673c-14.48937,0 -26.23532,-11.88538 -26.23532,-26.54673c0,-0.29737 0.12878,-0.4626 0.39334,-0.50753c0,0 13.19146,9.71874 21.86458,8.32623c8.24716,-1.32412 28.96064,-16.48646 28.96064,-16.48646z" fill="#79a4ff" stroke="#000000" stroke-width="0.5" stroke-linecap="butt"/><path d="M237.14986,190.6811c0,4.60048 -8.63522,10.354 -11.98884,10.354c-3.35362,0 -0.1557,-5.75352 -0.1557,-10.354c0,-4.60048 6.45543,-8.32991 9.80906,-8.32991c3.35362,0 2.33549,3.72943 2.33549,8.32991z" fill="#ffffff" stroke="#000000" stroke-width="0.5" stroke-linecap="butt"/><path d="M211.56618,167.49877c0.24846,2.0832 -0.07135,3.83414 -0.71432,3.91082c-0.64297,0.07668 -1.3656,-1.54992 -1.61406,-3.63313c-0.24846,-2.0832 0.07135,-3.83414 0.71432,-3.91082c0.64297,-0.07668 1.3656,1.54993 1.61406,3.63313z" fill="#000000" stroke="#000000" stroke-width="0.5" stroke-linecap="butt"/><path d="M201.54324,167.93547c-0.78006,1.94756 -1.8997,3.33119 -2.5008,3.09043c-0.6011,-0.24076 -0.45602,-2.01474 0.32404,-3.9623c0.78006,-1.94756 1.8997,-3.33119 2.5008,-3.09043c0.6011,0.24076 0.45602,2.01474 -0.32404,3.9623z" fill="#000000" stroke="#000000" stroke-width="0.5" stroke-linecap="butt"/><path d="M202.81539,171.25466l0.12014,7.68873l3.84437,-6.54744z" fill="#ccc500" stroke="#000000" stroke-width="0.5" stroke-linecap="round"/><path d="M211.02295,156.55191c0.17616,2.93599 -2.54572,5.38659 -6.0795,5.47356c-3.53378,0.08697 -6.54129,-2.22261 -6.71745,-5.1586c-0.16014,-2.66899 2.8558,2.52414 5.9183,2.06839c0.14617,-0.02175 -2.6886,-5.9565 -1.71987,-6.30797c1.06174,-0.38522 4.84036,4.83766 5.0084,4.83352c0.93766,-0.02308 -1.28907,-5.94492 -0.46859,-5.66361c2.27172,0.77889 3.92929,2.59776 4.05871,4.75471z" fill="#cc0000" stroke="#000000" stroke-width="0.5" stroke-linecap="butt"/><path d="" fill="#ffffff" stroke="#000000" stroke-width="0.5" stroke-linecap="butt"/><path d="M234.07983,171.70966c-0.01105,0.15427 -0.09502,1.6242 -2.23312,3.19805c-2.65169,1.95191 -6.89037,2.92527 -6.6462,2.88614c2.73076,-0.43761 5.32401,-2.80657 7.30915,-1.75215c1.61798,0.8594 -5.51879,4.33803 -7.81572,4.68384c-1.85624,0.27946 5.16275,-1.82362 4.84495,-0.15828c-0.70532,3.69599 -10.35225,6.53008 -11.86536,4.25588c-1.06933,-1.6072 -2.64272,-3.51977 -1.60608,-5.34801c0.85092,-1.5007 7.67966,-3.81562 10.08843,-4.88227c6.01208,-2.66227 8.18401,-6.51369 7.92395,-2.88319z" fill="#ffffff" stroke="#000000" stroke-width="0.5" stroke-linecap="butt"/></g></g></svg>