<?xml version="1.0" encoding="UTF-8"?>
<svg xmlns="http://www.w3.org/2000/svg" xmlns:xlink="http://www.w3.org/1999/xlink" width="312px" height="305px" viewBox="0 0 312 305" version="1.1">
<g id="surface1">
<path style=" stroke:none;fill-rule:nonzero;fill:rgb(0%,0%,0%);fill-opacity:1;" d="M 150.273438 15.796875 C 150.273438 15.855469 150.273438 18.445312 150.292969 21.585938 C 150.332031 27.257812 150.332031 27.257812 146.449219 27.199219 C 142.585938 27.125 142.585938 27.125 142.664062 31.007812 C 142.722656 34.871094 142.722656 34.871094 138.859375 34.8125 C 134.976562 34.738281 134.976562 34.738281 135.054688 38.621094 C 135.109375 42.484375 135.109375 42.484375 131.289062 42.425781 C 127.445312 42.351562 127.445312 42.351562 127.464844 69.074219 C 127.464844 95.777344 127.464844 95.777344 123.640625 95.722656 C 119.816406 95.644531 119.816406 95.644531 119.835938 114.679688 C 119.855469 133.714844 119.855469 133.714844 123.660156 133.636719 C 127.464844 133.582031 127.464844 133.582031 127.464844 141.328125 C 127.464844 149.074219 127.464844 149.074219 123.621094 149.015625 C 119.757812 148.941406 119.757812 148.941406 119.835938 152.824219 C 119.890625 156.6875 119.890625 156.6875 116.03125 156.628906 C 112.148438 156.554688 112.148438 156.554688 112.226562 160.398438 C 112.28125 164.261719 112.28125 164.261719 108.34375 164.261719 C 104.425781 164.261719 104.425781 164.261719 104.464844 156.59375 C 104.5 148.941406 104.5 148.941406 100.640625 149.015625 C 96.777344 149.074219 96.777344 149.074219 96.851562 145.210938 C 96.929688 141.347656 96.929688 141.347656 93.125 141.347656 C 89.320312 141.347656 89.320312 141.347656 89.394531 145.210938 C 89.472656 149.074219 89.472656 149.074219 85.628906 149.015625 C 81.785156 148.941406 81.785156 148.941406 81.804688 168.050781 C 81.824219 187.140625 81.824219 187.140625 77.960938 187.085938 C 74.101562 187.007812 74.101562 187.007812 74.175781 190.890625 C 74.234375 194.753906 74.234375 194.753906 70.371094 194.699219 C 66.492188 194.621094 66.492188 194.621094 66.566406 198.503906 C 66.625 202.367188 66.625 202.367188 62.800781 202.3125 C 58.957031 202.234375 58.957031 202.234375 58.957031 219.367188 C 58.957031 236.496094 58.957031 236.496094 62.800781 236.421875 C 66.625 236.363281 66.625 236.363281 66.566406 240.226562 C 66.492188 244.109375 66.492188 244.109375 70.371094 244.035156 C 74.234375 243.976562 74.234375 243.976562 74.175781 247.839844 C 74.101562 251.722656 74.101562 251.722656 77.960938 251.648438 C 81.824219 251.589844 81.824219 251.589844 81.804688 263.066406 C 81.765625 274.566406 81.765625 274.566406 83.707031 274.488281 C 85.628906 274.429688 85.628906 274.429688 85.570312 278.296875 C 85.515625 282.179688 85.515625 282.179688 87.492188 282.121094 C 89.472656 282.0625 89.472656 282.0625 89.394531 285.929688 C 89.320312 289.792969 89.320312 289.792969 93.125 289.792969 C 96.929688 289.792969 96.929688 289.792969 96.871094 285.929688 C 96.816406 282.0625 96.816406 282.0625 98.773438 282.121094 C 100.734375 282.179688 100.734375 282.179688 100.65625 278.296875 C 100.582031 274.429688 100.582031 274.429688 102.558594 274.488281 C 104.539062 274.566406 104.539062 274.566406 104.464844 270.683594 C 104.40625 266.816406 104.40625 266.816406 108.269531 266.875 C 112.148438 266.949219 112.148438 266.949219 112.074219 263.085938 C 112.015625 259.242188 112.015625 259.242188 119.738281 259.242188 C 127.464844 259.242188 127.464844 259.242188 127.464844 263.164062 C 127.464844 267.085938 127.464844 267.085938 123.621094 267.027344 C 119.796875 266.949219 119.796875 266.949219 119.796875 270.757812 C 119.796875 274.566406 119.796875 274.566406 123.660156 274.488281 C 127.5 274.429688 127.5 274.429688 127.445312 278.296875 C 127.367188 282.179688 127.367188 282.179688 155.90625 282.179688 C 184.441406 282.179688 184.441406 282.179688 184.367188 278.296875 C 184.289062 274.429688 184.289062 274.429688 188.152344 274.488281 C 192.011719 274.566406 192.011719 274.566406 192.011719 270.757812 C 192.03125 266.949219 192.03125 266.949219 188.1875 267.027344 C 184.347656 267.085938 184.347656 267.085938 184.347656 263.164062 C 184.347656 259.242188 184.347656 259.242188 192.070312 259.242188 C 199.792969 259.242188 199.792969 259.242188 199.738281 263.085938 C 199.660156 266.949219 199.660156 266.949219 203.542969 266.875 C 207.402344 266.816406 207.402344 266.816406 207.347656 270.683594 C 207.269531 274.566406 207.269531 274.566406 209.230469 274.488281 C 211.191406 274.429688 211.191406 274.429688 211.132812 278.296875 C 211.074219 282.179688 211.074219 282.179688 213.054688 282.121094 C 215.03125 282.0625 215.03125 282.0625 214.957031 285.929688 C 214.878906 289.792969 214.878906 289.792969 218.683594 289.792969 C 222.492188 289.792969 222.492188 289.792969 222.414062 285.929688 C 222.339844 282.0625 222.339844 282.0625 224.316406 282.121094 C 226.296875 282.179688 226.296875 282.179688 226.21875 278.296875 C 226.144531 274.414062 226.144531 274.414062 228.101562 274.488281 C 230.042969 274.566406 230.042969 274.566406 230.003906 263.066406 C 229.984375 251.589844 229.984375 251.589844 233.847656 251.648438 C 237.710938 251.722656 237.710938 251.722656 237.632812 247.839844 C 237.578125 243.976562 237.578125 243.976562 241.4375 244.035156 C 245.320312 244.109375 245.320312 244.109375 245.242188 240.226562 C 245.1875 236.363281 245.1875 236.363281 249.011719 236.421875 C 252.851562 236.496094 252.851562 236.496094 252.851562 221.269531 C 252.851562 206.042969 252.851562 206.042969 249.011719 206.117188 C 245.1875 206.175781 245.1875 206.175781 245.242188 202.3125 C 245.320312 198.429688 245.320312 198.429688 241.4375 198.503906 C 237.578125 198.5625 237.578125 198.5625 237.632812 194.699219 C 237.710938 190.816406 237.710938 190.816406 233.847656 190.890625 C 229.984375 190.949219 229.984375 190.949219 230.003906 169.953125 C 230.023438 148.941406 230.023438 148.941406 226.179688 149.015625 C 222.355469 149.074219 222.355469 149.074219 222.414062 145.210938 C 222.492188 141.328125 222.492188 141.328125 218.683594 141.328125 C 214.878906 141.347656 214.878906 141.347656 214.957031 145.210938 C 215.03125 149.074219 215.03125 149.074219 211.171875 149.015625 C 207.308594 148.941406 207.308594 148.941406 207.347656 156.59375 C 207.386719 164.261719 207.386719 164.261719 203.464844 164.261719 C 199.527344 164.261719 199.527344 164.261719 199.585938 160.398438 C 199.660156 156.554688 199.660156 156.554688 195.78125 156.628906 C 191.917969 156.6875 191.917969 156.6875 191.976562 152.824219 C 192.050781 148.941406 192.050781 148.941406 188.207031 149.015625 C 184.347656 149.074219 184.347656 149.074219 184.347656 141.328125 C 184.347656 133.582031 184.347656 133.582031 188.152344 133.636719 C 191.957031 133.714844 191.957031 133.714844 191.976562 114.679688 C 191.996094 95.644531 191.996094 95.644531 188.171875 95.722656 C 184.328125 95.796875 184.328125 95.796875 184.347656 69.074219 C 184.367188 42.351562 184.367188 42.351562 180.523438 42.425781 C 176.699219 42.484375 176.699219 42.484375 176.753906 38.621094 C 176.832031 34.738281 176.832031 34.738281 172.949219 34.8125 C 169.089844 34.871094 169.089844 34.871094 169.144531 31.007812 C 169.222656 27.125 169.222656 27.125 165.359375 27.199219 C 161.480469 27.257812 161.480469 27.257812 161.535156 21.507812 C 161.59375 15.761719 161.59375 15.761719 155.941406 15.722656 C 152.84375 15.722656 150.292969 15.742188 150.273438 15.796875 Z M 159.460938 17.835938 C 159.765625 18.101562 159.804688 18.480469 159.804688 21.605469 C 159.804688 24.152344 159.746094 25.125 159.578125 25.277344 C 159.292969 25.503906 157.523438 25.65625 157.523438 25.46875 C 157.523438 25.371094 157.390625 25.316406 157.238281 25.316406 C 157.085938 25.316406 157.007812 25.429688 157.046875 25.542969 C 157.121094 25.734375 156.609375 25.773438 154.726562 25.714844 C 153.375 25.695312 152.253906 25.621094 152.195312 25.5625 C 152.136719 25.523438 152.0625 23.847656 152.042969 21.871094 C 151.949219 17.148438 151.625 17.511719 155.867188 17.511719 C 158.625 17.511719 159.15625 17.566406 159.460938 17.835938 Z M 161.460938 27.277344 C 161.535156 27.371094 161.613281 29.082031 161.632812 31.082031 C 161.648438 34.71875 161.648438 34.71875 165.285156 34.71875 C 167.261719 34.738281 168.976562 34.8125 169.070312 34.890625 C 169.144531 34.984375 169.222656 36.699219 169.242188 38.675781 C 169.242188 42.3125 169.242188 42.3125 172.875 42.332031 C 174.871094 42.351562 176.585938 42.425781 176.679688 42.503906 C 176.753906 42.597656 176.851562 66.582031 176.871094 95.777344 C 176.925781 148.902344 176.925781 148.902344 180.523438 148.921875 C 182.5 148.941406 184.195312 149.015625 184.289062 149.09375 C 184.367188 149.1875 184.460938 151.527344 184.480469 154.328125 C 184.5 157.105469 184.574219 159.503906 184.632812 159.636719 C 184.6875 159.847656 184.820312 159.847656 185.105469 159.695312 C 185.621094 159.429688 185.621094 158.285156 185.105469 157.449219 C 184.746094 156.859375 184.746094 156.820312 185.050781 156.6875 C 185.527344 156.496094 191.707031 156.515625 191.898438 156.707031 C 191.976562 156.800781 192.070312 158.496094 192.089844 160.496094 C 192.109375 164.109375 192.109375 164.109375 195.722656 164.128906 C 197.71875 164.148438 199.414062 164.242188 199.507812 164.320312 C 199.585938 164.414062 199.679688 166.128906 199.679688 168.125 C 199.699219 171.761719 199.699219 171.761719 203.542969 171.707031 C 207.367188 171.648438 207.367188 171.648438 207.402344 196.355469 C 207.441406 214.777344 207.519531 221.058594 207.6875 221.117188 C 208.242188 221.308594 208.449219 220.128906 208.46875 216.492188 C 208.488281 214.511719 208.5625 209.847656 208.621094 206.136719 C 208.699219 202.425781 208.679688 193.234375 208.601562 185.734375 C 208.46875 172.085938 208.46875 172.085938 207.613281 171.230469 C 206.777344 170.371094 206.777344 170.371094 203.980469 170.316406 C 201.183594 170.257812 201.183594 170.257812 201.183594 168.355469 C 201.183594 166.453125 201.183594 166.453125 203.960938 166.355469 C 206.660156 166.261719 206.757812 166.242188 207.386719 165.710938 C 208.5625 164.699219 209.058594 163.882812 209.078125 162.875 C 209.078125 162.378906 209.171875 161.980469 209.269531 161.980469 C 209.382812 161.980469 209.457031 161.84375 209.457031 161.695312 C 209.457031 161.542969 209.382812 161.40625 209.269531 161.40625 C 209.152344 161.40625 209.078125 159.617188 209.078125 156.402344 C 209.078125 150.253906 208.851562 150.691406 211.96875 150.75 C 215.128906 150.804688 214.898438 150.863281 215.089844 149.949219 C 215.300781 148.941406 215.488281 148.882812 218.683594 148.882812 C 221.882812 148.882812 222.070312 148.941406 222.28125 149.949219 C 222.472656 150.863281 222.242188 150.804688 225.402344 150.75 C 226.847656 150.730469 227.625 150.785156 227.816406 150.9375 C 228.0625 151.148438 228.101562 152.441406 228.082031 159.867188 C 228.0625 164.644531 228.007812 170.335938 227.929688 172.503906 C 227.855469 175.492188 227.875 176.519531 228.046875 176.691406 C 228.214844 176.863281 228.292969 178.671875 228.3125 183.714844 C 228.332031 190.53125 228.332031 190.53125 229.207031 191.5 C 230.328125 192.757812 230.632812 192.871094 233.238281 192.984375 C 235.425781 193.097656 235.425781 193.097656 235.425781 195.003906 C 235.425781 196.90625 235.425781 196.90625 232.820312 197 C 230.328125 197.097656 230.175781 197.117188 229.71875 197.589844 C 228.957031 198.351562 228.863281 199.609375 228.863281 210.34375 C 228.863281 220.46875 228.921875 221.25 229.625 221.117188 C 229.871094 221.078125 229.910156 219.632812 229.96875 209.679688 C 230.003906 198.296875 230.003906 198.296875 233.695312 198.351562 C 235.730469 198.390625 237.460938 198.503906 237.558594 198.582031 C 237.632812 198.675781 237.710938 200.351562 237.710938 202.332031 C 237.710938 205.929688 237.710938 205.929688 241.363281 205.984375 C 243.359375 206.023438 245.070312 206.117188 245.167969 206.195312 C 245.242188 206.289062 245.339844 209.734375 245.375 213.867188 C 245.433594 221.382812 245.433594 221.382812 241.285156 221.363281 C 228.996094 221.289062 230.101562 220.925781 230.101562 225.078125 C 230.101562 229.226562 228.996094 228.863281 241.285156 228.789062 C 245.453125 228.769531 245.453125 228.769531 245.375 232.480469 C 245.339844 234.515625 245.242188 236.25 245.167969 236.34375 C 245.070312 236.421875 243.359375 236.515625 241.363281 236.554688 C 237.710938 236.609375 237.710938 236.609375 237.710938 240.207031 C 237.710938 242.1875 237.632812 243.863281 237.558594 243.957031 C 237.460938 244.035156 235.730469 244.148438 233.695312 244.167969 C 230.003906 244.242188 230.003906 244.242188 230.003906 236.707031 C 230.003906 230.042969 229.96875 229.148438 229.699219 229.035156 C 229.300781 228.882812 228.597656 229.664062 228.769531 230.082031 C 228.84375 230.253906 228.882812 233.414062 228.863281 237.105469 C 228.84375 243.804688 228.84375 243.804688 229.625 244.585938 C 230.386719 245.347656 230.386719 245.347656 232.914062 245.347656 C 234.628906 245.347656 235.523438 245.421875 235.675781 245.574219 C 235.996094 245.898438 235.980469 249.230469 235.675781 249.496094 C 235.464844 249.667969 233.523438 249.839844 230.765625 249.953125 C 230.367188 249.972656 230.003906 250.105469 229.851562 250.335938 C 229.71875 250.523438 229.472656 250.675781 229.320312 250.675781 C 229.167969 250.675781 229.054688 250.792969 229.054688 250.90625 C 229.054688 251.039062 228.902344 251.402344 228.710938 251.722656 C 228.425781 252.238281 228.386719 253.191406 228.332031 262.191406 C 228.273438 273.117188 228.292969 272.890625 227.113281 272.71875 C 226.523438 272.625 226.105469 273.078125 225.972656 273.917969 C 225.875 274.582031 225.515625 274.621094 218.683594 274.621094 C 211.835938 274.621094 211.496094 274.582031 211.398438 273.898438 C 211.265625 273.042969 210.867188 272.660156 210.105469 272.738281 C 209.667969 272.777344 209.34375 272.699219 209.25 272.527344 C 209.152344 272.394531 209.078125 271.121094 209.078125 269.671875 C 209.078125 267.085938 209.078125 267.085938 208.183594 266.207031 C 207.707031 265.734375 207.289062 265.3125 207.289062 265.296875 C 207.269531 265.296875 206.035156 265.21875 204.511719 265.160156 C 201.753906 265.046875 201.753906 265.046875 201.753906 262.859375 C 201.753906 260.671875 201.753906 260.671875 204.320312 260.613281 C 206.910156 260.554688 206.910156 260.554688 207.574219 259.945312 C 207.957031 259.625 208.316406 259.089844 208.394531 258.785156 C 208.46875 258.480469 208.527344 251.914062 208.527344 244.167969 C 208.527344 230.140625 208.527344 230.121094 208.125 229.550781 C 207.898438 229.226562 207.632812 229.015625 207.535156 229.074219 C 207.441406 229.148438 207.367188 235.277344 207.367188 244.339844 C 207.367188 259.472656 207.367188 259.472656 203.675781 259.394531 C 201.640625 259.375 199.910156 259.261719 199.8125 259.183594 C 199.738281 259.089844 199.640625 257.394531 199.621094 255.417969 C 199.605469 251.800781 199.605469 251.800781 192.050781 251.800781 C 184.480469 251.800781 184.480469 251.800781 184.460938 255.417969 C 184.460938 257.394531 184.367188 259.089844 184.289062 259.183594 C 184.195312 259.261719 182.480469 259.355469 180.484375 259.375 C 176.851562 259.394531 176.851562 259.394531 176.90625 263.21875 C 176.964844 267.046875 176.964844 267.046875 174.949219 267.046875 C 172.914062 267.046875 172.914062 267.046875 172.933594 249.878906 C 172.949219 232.691406 172.949219 232.691406 171.046875 232.746094 C 169.125 232.824219 169.125 232.824219 169.125 231.089844 C 169.125 230.140625 169.050781 229.359375 168.976562 229.359375 C 168.632812 229.359375 168.175781 230.519531 168.175781 231.394531 C 168.175781 233.070312 168.957031 233.890625 170.78125 234.117188 C 171.617188 234.210938 171.617188 234.210938 171.617188 242.398438 C 171.617188 246.890625 171.695312 254.253906 171.753906 258.746094 C 171.886719 266.894531 171.886719 266.894531 172.628906 267.542969 C 173.351562 268.167969 173.445312 268.1875 174.910156 268.1875 C 176.660156 268.1875 177.003906 267.996094 177.6875 266.78125 C 178.050781 266.113281 178.085938 265.789062 178.050781 263.542969 C 178.011719 262.15625 178.066406 260.9375 178.144531 260.804688 C 178.335938 260.5 182.175781 260.480469 182.367188 260.804688 C 182.519531 261.03125 182.578125 261.734375 182.710938 264.722656 C 182.785156 266.664062 182.785156 266.664062 183.605469 267.695312 C 184.59375 268.894531 184.726562 268.949219 187.582031 269.121094 C 189.769531 269.234375 189.769531 269.234375 189.824219 270.890625 C 189.882812 272.566406 189.882812 272.566406 188.855469 272.566406 C 188.285156 272.566406 187.046875 272.625 186.097656 272.679688 C 184.367188 272.8125 184.367188 272.8125 184.195312 273.59375 C 184.078125 274.261719 183.964844 274.394531 183.492188 274.488281 C 182.75 274.660156 129.0625 274.660156 128.320312 274.488281 C 127.84375 274.394531 127.730469 274.261719 127.617188 273.59375 C 127.445312 272.8125 127.445312 272.8125 126 272.679688 C 125.199219 272.625 123.925781 272.566406 123.144531 272.566406 C 121.738281 272.566406 121.738281 272.566406 121.792969 270.796875 C 121.851562 269.042969 121.851562 269.042969 124.515625 268.949219 C 127.195312 268.855469 127.195312 268.855469 127.9375 268.015625 C 129.195312 266.648438 129.15625 266.742188 129.214844 263.601562 C 129.269531 260.671875 129.269531 260.671875 131.457031 260.671875 C 133.644531 260.671875 133.644531 260.671875 133.703125 263.640625 C 133.742188 266.589844 133.742188 266.589844 134.519531 267.390625 C 135.28125 268.1875 135.28125 268.1875 138.613281 268.1875 C 141.921875 268.1875 141.960938 268.1875 142.605469 267.695312 C 143.957031 266.664062 143.882812 267.808594 143.882812 248.507812 C 143.882812 231.851562 143.863281 231.089844 143.519531 230.386719 C 142.664062 228.675781 142.683594 228.445312 142.683594 248.277344 C 142.683594 267.046875 142.683594 267.046875 138.765625 267.046875 C 134.84375 267.046875 134.84375 267.046875 134.902344 263.21875 C 134.960938 259.394531 134.960938 259.394531 131.324219 259.375 C 129.328125 259.355469 127.617188 259.261719 127.519531 259.183594 C 127.445312 259.089844 127.347656 257.394531 127.332031 255.417969 C 127.3125 251.800781 127.3125 251.800781 119.757812 251.800781 C 112.207031 251.800781 112.207031 251.800781 112.1875 255.417969 C 112.167969 257.394531 112.074219 259.089844 111.996094 259.183594 C 111.902344 259.261719 110.171875 259.375 108.132812 259.414062 C 104.445312 259.472656 104.445312 259.472656 104.445312 244.339844 C 104.445312 235.621094 104.367188 229.148438 104.273438 229.09375 C 104.175781 229.035156 103.929688 229.128906 103.722656 229.320312 C 103.339844 229.625 103.320312 229.871094 103.285156 237.542969 C 103.265625 241.882812 103.265625 248.488281 103.285156 252.21875 C 103.300781 259.015625 103.300781 259.015625 104.082031 259.792969 C 104.863281 260.574219 104.863281 260.574219 107.375 260.574219 C 109.066406 260.574219 109.960938 260.652344 110.113281 260.804688 C 110.265625 260.957031 110.339844 261.679688 110.339844 262.761719 C 110.339844 265.160156 110.324219 265.179688 107.355469 265.125 C 104.84375 265.066406 104.671875 265.125 103.398438 266.476562 C 102.828125 267.066406 102.828125 267.085938 102.769531 269.578125 C 102.695312 272.394531 102.523438 272.851562 101.550781 272.71875 C 100.960938 272.625 100.542969 273.078125 100.410156 273.898438 C 100.316406 274.582031 99.953125 274.621094 93.21875 274.621094 C 86.257812 274.621094 85.933594 274.582031 85.839844 273.898438 C 85.703125 273.023438 85.304688 272.660156 84.46875 272.738281 C 83.707031 272.792969 83.707031 272.792969 83.6875 270.433594 C 83.554688 256.769531 83.421875 252.085938 83.117188 251.667969 C 82.433594 250.714844 81.386719 249.726562 81.195312 249.839844 C 80.835938 250.066406 76.441406 249.914062 76.136719 249.6875 C 75.832031 249.421875 75.851562 245.996094 76.171875 245.574219 C 76.308594 245.386719 76.933594 245.328125 78.742188 245.367188 C 81.5 245.421875 81.84375 245.308594 82.527344 243.996094 C 82.945312 243.214844 82.964844 243.082031 82.925781 236.382812 C 82.910156 229.570312 82.910156 229.570312 82.472656 229.28125 C 82.242188 229.128906 81.996094 229.054688 81.917969 229.113281 C 81.863281 229.1875 81.804688 232.613281 81.804688 236.746094 C 81.804688 244.242188 81.804688 244.242188 78.113281 244.167969 C 76.078125 244.148438 74.347656 244.035156 74.253906 243.957031 C 74.175781 243.863281 74.082031 242.167969 74.0625 240.171875 C 74.042969 236.554688 74.042969 236.554688 70.429688 236.515625 C 68.429688 236.515625 66.738281 236.421875 66.640625 236.34375 C 66.566406 236.25 66.472656 234.667969 66.433594 232.824219 C 66.375 229.113281 66.339844 228.941406 65.9375 229.09375 C 65.519531 229.265625 65.367188 229.871094 65.273438 232.214844 C 65.160156 234.402344 65.160156 234.402344 63.882812 234.574219 C 63.179688 234.652344 62.210938 234.667969 61.753906 234.613281 C 60.898438 234.480469 60.898438 234.480469 60.839844 232.0625 C 60.800781 230.730469 60.800781 223.972656 60.839844 217.023438 C 60.878906 204.40625 60.878906 204.40625 62.933594 204.460938 C 64.96875 204.519531 64.96875 204.519531 65.082031 205.949219 C 65.160156 206.726562 65.214844 210.324219 65.234375 213.941406 C 65.253906 217.558594 65.328125 220.601562 65.40625 220.738281 C 65.480469 220.851562 65.710938 220.984375 65.917969 221.023438 C 66.300781 221.078125 66.300781 220.945312 66.394531 211.808594 C 66.453125 206.726562 66.566406 202.484375 66.640625 202.386719 C 66.738281 202.3125 68.429688 202.214844 70.429688 202.199219 C 74.042969 202.179688 74.042969 202.179688 74.0625 198.5625 C 74.082031 196.5625 74.175781 194.871094 74.253906 194.773438 C 74.347656 194.699219 76.078125 194.585938 78.113281 194.546875 C 81.804688 194.488281 81.804688 194.488281 81.804688 207.71875 C 81.804688 215.007812 81.882812 221.003906 81.957031 221.058594 C 82.03125 221.097656 82.183594 221.097656 82.28125 221.023438 C 82.925781 220.566406 82.945312 220.148438 82.945312 207.546875 C 82.945312 195.421875 82.925781 195.039062 82.566406 194.527344 C 81.785156 193.441406 81.367188 193.308594 78.742188 193.367188 C 77.011719 193.402344 76.289062 193.347656 76.191406 193.175781 C 76.097656 193.0625 76.003906 192.167969 75.945312 191.214844 C 75.832031 188.835938 75.832031 188.835938 79.046875 188.796875 C 81.5 188.757812 81.5 188.757812 82.488281 187.789062 C 83.460938 186.816406 83.460938 186.816406 83.59375 175.300781 C 83.667969 168.964844 83.707031 160.933594 83.707031 157.429688 C 83.6875 153.925781 83.765625 151.015625 83.839844 150.921875 C 83.917969 150.84375 85.078125 150.75 86.390625 150.710938 C 88.976562 150.652344 89.507812 150.464844 89.644531 149.550781 C 89.71875 148.996094 90.308594 148.882812 93.125 148.882812 C 96.300781 148.882812 96.511719 148.960938 96.71875 149.910156 C 96.871094 150.671875 96.871094 150.671875 99.480469 150.730469 C 101.515625 150.769531 102.140625 150.84375 102.390625 151.074219 C 102.695312 151.359375 102.730469 151.910156 102.730469 157.601562 C 102.730469 163.824219 102.730469 163.824219 103.644531 164.871094 C 104.730469 166.148438 104.804688 166.183594 108.058594 166.335938 C 110.625 166.453125 110.625 166.453125 110.625 168.355469 C 110.625 170.257812 110.625 170.257812 107.832031 170.316406 C 105.035156 170.371094 105.035156 170.371094 104.195312 171.210938 C 103.359375 172.066406 103.359375 172.066406 103.207031 184.34375 C 103.035156 199.609375 103.226562 219.726562 103.550781 220.414062 C 103.816406 220.964844 104.082031 221.195312 104.292969 221.058594 C 104.367188 221.003906 104.445312 209.867188 104.445312 196.316406 C 104.445312 171.648438 104.445312 171.648438 108.269531 171.707031 C 112.089844 171.761719 112.089844 171.761719 112.109375 168.125 C 112.128906 166.128906 112.226562 164.414062 112.300781 164.320312 C 112.394531 164.242188 114.089844 164.148438 116.085938 164.128906 C 119.71875 164.089844 119.71875 164.089844 119.738281 160.476562 C 119.738281 158.496094 119.835938 156.800781 119.910156 156.707031 C 120.003906 156.628906 121.699219 156.535156 123.695312 156.515625 C 127.332031 156.496094 127.332031 156.496094 127.347656 152.878906 C 127.347656 150.882812 127.445312 149.1875 127.519531 149.09375 C 127.617188 149.015625 129.308594 148.921875 131.289062 148.902344 C 134.882812 148.863281 134.882812 148.863281 134.941406 95.761719 C 134.960938 66.5625 135.054688 42.597656 135.128906 42.503906 C 135.226562 42.425781 136.917969 42.332031 138.917969 42.3125 C 142.53125 42.292969 142.53125 42.292969 142.550781 38.675781 C 142.570312 36.679688 142.664062 34.984375 142.738281 34.890625 C 142.835938 34.8125 144.546875 34.71875 146.542969 34.699219 C 150.199219 34.679688 150.199219 34.679688 150.121094 32.035156 C 150.101562 30.570312 150.121094 28.894531 150.199219 28.304688 C 150.332031 27.292969 150.367188 27.238281 150.941406 27.160156 C 152.042969 27.007812 161.289062 27.125 161.460938 27.277344 Z M 145.402344 29.234375 C 145.460938 29.3125 146.222656 29.371094 147.097656 29.386719 C 148.675781 29.40625 148.675781 29.40625 148.675781 31.3125 C 148.675781 33.214844 148.675781 33.214844 146.640625 33.269531 C 144.605469 33.328125 144.605469 33.328125 144.546875 31.464844 C 144.507812 30.433594 144.507812 29.484375 144.546875 29.351562 C 144.625 29.121094 145.195312 29.027344 145.402344 29.234375 Z M 166.9375 31.121094 C 166.9375 32.832031 166.9375 32.832031 165.226562 32.832031 C 163.515625 32.832031 163.515625 32.832031 163.457031 31.328125 C 163.382812 29.21875 163.304688 29.292969 165.265625 29.351562 C 166.9375 29.40625 166.9375 29.40625 166.9375 31.121094 Z M 141.179688 38.734375 C 141.332031 41.019531 141.292969 41.074219 138.859375 40.960938 C 137.011719 40.886719 137.011719 40.886719 136.898438 40.199219 C 136.746094 39.230469 136.746094 37.210938 136.917969 37.039062 C 136.996094 36.984375 137.945312 36.945312 139.050781 36.964844 C 141.066406 37.019531 141.066406 37.019531 141.179688 38.734375 Z M 174.546875 38.734375 C 174.546875 40.445312 174.546875 40.445312 172.835938 40.445312 C 171.125 40.445312 171.125 40.445312 171.066406 38.945312 C 170.992188 36.832031 170.914062 36.90625 172.875 36.964844 C 174.546875 37.019531 174.546875 37.019531 174.546875 38.734375 Z M 133.457031 96.027344 C 133.457031 147.417969 133.457031 147.417969 131.476562 147.476562 C 130.011719 147.511719 129.441406 147.457031 129.328125 147.285156 C 129.25 147.152344 129.175781 144.335938 129.175781 141.023438 C 129.175781 137.710938 129.117188 134.703125 129.042969 134.359375 C 128.964844 133.960938 128.585938 133.390625 128.015625 132.820312 C 127.160156 131.960938 127.027344 131.90625 126.132812 131.90625 C 125.617188 131.90625 125.179688 131.808594 125.179688 131.714844 C 125.179688 131.601562 125.046875 131.523438 124.894531 131.523438 C 124.742188 131.523438 124.609375 131.601562 124.609375 131.714844 C 124.609375 132 122.230469 131.960938 121.984375 131.65625 C 121.871094 131.503906 121.757812 126.691406 121.660156 118.199219 C 121.527344 104.972656 121.527344 104.972656 121.050781 104.25 C 120.804688 103.832031 120.632812 103.449219 120.710938 103.390625 C 120.785156 103.316406 122.308594 103.238281 124.097656 103.238281 C 127.367188 103.222656 127.367188 103.222656 127.292969 100.386719 C 127.214844 96.75 127.332031 96.160156 128.109375 95.835938 C 129.269531 95.339844 129.195312 96.941406 129.308594 69.644531 C 129.421875 44.519531 129.421875 44.519531 131.441406 44.578125 C 133.457031 44.632812 133.457031 44.632812 133.457031 96.027344 Z M 182.195312 62.984375 C 182.234375 73.964844 182.3125 81.40625 182.425781 81.542969 C 182.578125 81.730469 182.785156 94.160156 182.632812 94.695312 C 182.519531 95.152344 182.691406 95.339844 183.472656 95.722656 C 184.5 96.234375 184.59375 96.65625 184.515625 100.554688 C 184.460938 103.203125 184.460938 103.203125 187.714844 103.238281 C 189.503906 103.238281 191.042969 103.316406 191.117188 103.390625 C 191.195312 103.46875 191.023438 103.832031 190.738281 104.191406 C 190.242188 104.859375 190.242188 104.859375 190.242188 111.425781 C 190.242188 115.59375 190.167969 118.03125 190.054688 118.105469 C 189.941406 118.183594 189.863281 120.675781 189.863281 124.9375 C 189.863281 131.65625 189.863281 131.65625 187.238281 131.773438 C 184.59375 131.886719 184.59375 131.886719 183.625 132.875 C 182.632812 133.867188 182.632812 133.867188 182.597656 140.453125 C 182.539062 147.039062 182.539062 147.039062 180.636719 147.039062 C 178.734375 147.039062 178.734375 147.039062 178.675781 96.027344 C 178.65625 67.96875 178.675781 44.902344 178.734375 44.769531 C 178.792969 44.597656 179.265625 44.539062 180.484375 44.578125 C 182.160156 44.632812 182.160156 44.632812 182.195312 62.984375 Z M 125.847656 99.738281 C 125.847656 101.738281 125.847656 101.738281 123.945312 101.738281 C 122.042969 101.738281 122.042969 101.738281 121.984375 99.945312 C 121.910156 97.625 121.925781 97.625 124.113281 97.683594 C 125.847656 97.738281 125.847656 97.738281 125.847656 99.738281 Z M 189.769531 99.832031 C 189.769531 101.738281 189.769531 101.738281 187.867188 101.738281 C 185.964844 101.738281 185.964844 101.738281 185.90625 100.042969 C 185.832031 97.703125 185.714844 97.816406 187.902344 97.871094 C 189.769531 97.929688 189.769531 97.929688 189.769531 99.832031 Z M 94.644531 145.515625 C 94.644531 147.417969 94.644531 147.417969 93.125 147.417969 C 91.601562 147.417969 91.601562 147.417969 91.546875 145.722656 C 91.46875 143.421875 91.414062 143.496094 93.164062 143.554688 C 94.644531 143.609375 94.644531 143.609375 94.644531 145.515625 Z M 220.207031 145.515625 C 220.207031 147.417969 220.207031 147.417969 218.683594 147.417969 C 217.164062 147.417969 217.164062 147.417969 217.105469 145.722656 C 217.03125 143.421875 216.972656 143.496094 218.722656 143.554688 C 220.207031 143.609375 220.207031 143.609375 220.207031 145.515625 Z M 125.847656 153.128906 C 125.847656 155.03125 125.847656 155.03125 123.8125 155.089844 C 121.757812 155.144531 121.757812 155.144531 121.757812 153.128906 C 121.757812 151.109375 121.757812 151.109375 123.8125 151.167969 C 125.847656 151.226562 125.847656 151.226562 125.847656 153.128906 Z M 189.824219 151.359375 C 190.074219 151.605469 190.148438 153.070312 189.921875 153.28125 C 189.863281 153.355469 189.789062 153.773438 189.789062 154.230469 C 189.769531 155.03125 189.769531 155.03125 188.054688 155.03125 C 186.34375 155.03125 186.34375 155.03125 186.285156 153.335938 C 186.25 152.40625 186.269531 151.527344 186.324219 151.378906 C 186.457031 151.054688 189.503906 151.035156 189.824219 151.359375 Z M 195.496094 158.535156 C 195.589844 158.648438 196.140625 158.742188 196.710938 158.78125 C 197.757812 158.839844 197.757812 158.839844 197.816406 160.265625 C 197.871094 162.453125 197.738281 162.625 195.664062 162.757812 C 193.382812 162.910156 193.324219 162.855469 193.441406 160.703125 C 193.496094 159.5625 193.609375 158.914062 193.820312 158.6875 C 194.125 158.34375 195.191406 158.25 195.496094 158.535156 Z M 118.238281 160.742188 C 118.238281 162.644531 118.238281 162.644531 116.199219 162.703125 C 114.144531 162.757812 114.144531 162.757812 114.144531 160.742188 C 114.144531 158.722656 114.144531 158.722656 116.199219 158.78125 C 118.238281 158.839844 118.238281 158.839844 118.238281 160.742188 Z M 72.578125 198.808594 C 72.578125 200.714844 72.578125 200.714844 70.542969 200.769531 C 68.488281 200.828125 68.488281 200.828125 68.488281 198.808594 C 68.488281 196.792969 68.488281 196.792969 70.542969 196.847656 C 72.578125 196.90625 72.578125 196.90625 72.578125 198.808594 Z M 243.09375 202.386719 C 243.152344 204.328125 243.320312 204.175781 240.90625 204.273438 C 239.136719 204.347656 239.136719 204.347656 239.136719 202.617188 C 239.136719 201.644531 239.195312 200.808594 239.269531 200.730469 C 239.347656 200.65625 240.222656 200.636719 241.230469 200.65625 C 243.035156 200.714844 243.035156 200.714844 243.09375 202.386719 Z M 250.796875 208.191406 C 251.082031 208.496094 251.101562 209.8125 251.121094 221.25 C 251.140625 231.015625 251.101562 234.023438 250.914062 234.230469 C 250.742188 234.441406 250.285156 234.5 248.859375 234.460938 C 247.03125 234.402344 247.03125 234.402344 246.9375 231.890625 C 246.878906 230.519531 246.804688 229.359375 246.746094 229.300781 C 246.6875 229.265625 246.386719 229.074219 246.0625 228.921875 C 245.320312 228.539062 245.222656 228.027344 245.242188 224.886719 C 245.28125 222.105469 245.394531 221.480469 245.890625 221.402344 C 246.898438 221.210938 246.9375 220.984375 246.9375 214.398438 C 246.9375 209.925781 246.992188 208.25 247.164062 208.078125 C 247.546875 207.699219 250.417969 207.773438 250.796875 208.191406 Z M 243.757812 223.441406 C 243.835938 223.515625 243.894531 224.351562 243.855469 225.285156 C 243.796875 226.980469 243.796875 226.980469 237.710938 226.980469 C 231.621094 226.980469 231.621094 226.980469 231.566406 225.285156 C 231.527344 224.351562 231.566406 223.457031 231.621094 223.304688 C 231.71875 223.058594 232.535156 223.039062 237.671875 223.171875 C 240.925781 223.25 243.683594 223.363281 243.757812 223.441406 Z M 72.636719 240.054688 C 72.691406 242.113281 72.691406 242.113281 70.582031 242.113281 C 68.488281 242.113281 68.488281 242.113281 68.488281 240.019531 C 68.488281 237.90625 68.488281 237.90625 70.542969 237.960938 C 72.578125 238.019531 72.578125 238.019531 72.636719 240.054688 Z M 243.09375 240.246094 C 243.152344 242.113281 243.152344 242.113281 241.132812 242.113281 C 239.136719 242.113281 239.136719 242.113281 239.136719 240.339844 C 239.136719 239.351562 239.195312 238.496094 239.269531 238.417969 C 239.347656 238.34375 240.222656 238.324219 241.230469 238.34375 C 243.035156 238.398438 243.035156 238.398438 243.09375 240.246094 Z M 125.902344 255.285156 C 125.960938 257.339844 125.960938 257.339844 119.757812 257.339844 C 113.574219 257.339844 113.574219 257.339844 113.574219 255.378906 C 113.574219 254.292969 113.632812 253.34375 113.707031 253.285156 C 113.785156 253.207031 116.542969 253.171875 119.835938 253.191406 C 125.847656 253.246094 125.847656 253.246094 125.902344 255.285156 Z M 198.195312 255.285156 C 198.253906 257.339844 198.253906 257.339844 192.050781 257.339844 C 185.867188 257.339844 185.867188 257.339844 185.867188 255.378906 C 185.867188 254.292969 185.925781 253.34375 186 253.285156 C 186.078125 253.207031 188.835938 253.171875 192.128906 253.191406 C 198.140625 253.246094 198.140625 253.246094 198.195312 255.285156 Z M 98.527344 275.878906 C 98.679688 276.050781 98.738281 276.8125 98.699219 278.085938 C 98.640625 280.238281 98.660156 280.179688 97.308594 280.542969 C 96.71875 280.710938 96.378906 280.980469 95.84375 281.742188 C 95.121094 282.730469 95.121094 282.730469 95.121094 284.9375 C 95.121094 287.433594 94.894531 288.078125 94.191406 287.660156 C 93.941406 287.507812 93.769531 287.488281 93.695312 287.601562 C 93.523438 287.871094 91.621094 287.832031 91.355469 287.566406 C 91.203125 287.414062 91.125 286.535156 91.125 284.957031 C 91.109375 282.578125 91.109375 282.558594 90.535156 281.894531 C 90.234375 281.53125 89.394531 280.921875 88.691406 280.558594 C 87.417969 279.894531 87.417969 279.894531 87.398438 278.277344 C 87.378906 276.792969 87.417969 276.621094 87.855469 276.125 C 88.347656 275.613281 88.347656 275.613281 93.332031 275.613281 C 97.367188 275.613281 98.355469 275.667969 98.527344 275.878906 Z M 222.261719 275.933594 C 222.339844 275.992188 222.757812 276.070312 223.214844 276.070312 C 224.011719 276.085938 224.011719 276.085938 224.011719 278.179688 C 224.011719 280.273438 224.011719 280.273438 223.402344 280.332031 C 222.964844 280.371094 222.472656 280.675781 221.785156 281.320312 C 220.777344 282.234375 220.777344 282.234375 220.683594 284.765625 C 220.625 286.175781 220.511719 287.433594 220.4375 287.546875 C 220.339844 287.71875 219.808594 287.792969 218.914062 287.792969 C 216.820312 287.773438 216.726562 287.660156 216.648438 284.652344 C 216.59375 282.214844 216.59375 282.214844 215.46875 281.207031 C 214.726562 280.523438 214.175781 280.179688 213.757812 280.140625 C 213.167969 280.085938 213.167969 280.085938 213.109375 278.027344 C 213.054688 275.953125 213.054688 275.953125 213.816406 276.011719 C 214.234375 276.050781 214.632812 276.011719 214.710938 275.933594 C 214.878906 275.765625 222.089844 275.765625 222.261719 275.933594 Z M 182.160156 277.992188 C 182.160156 279.894531 182.160156 279.894531 155.90625 279.894531 C 129.652344 279.894531 129.652344 279.894531 129.59375 278.199219 C 129.554688 277.265625 129.574219 276.390625 129.632812 276.238281 C 129.726562 276.03125 134.253906 275.992188 155.941406 276.03125 C 182.160156 276.085938 182.160156 276.085938 182.160156 277.992188 Z M 182.160156 277.992188 "/>
<path style=" stroke:none;fill-rule:nonzero;fill:rgb(0%,0%,0%);fill-opacity:1;" d="M 157.046875 28.359375 C 156.894531 28.664062 156.761719 29.046875 156.761719 29.21875 C 156.761719 29.597656 156 29.882812 155.046875 29.882812 C 154.476562 29.882812 154.136719 30.015625 153.679688 30.433594 C 153.050781 30.988281 153.050781 30.988281 152.9375 38.867188 C 152.859375 43.1875 152.804688 66.582031 152.785156 90.847656 C 152.765625 137.539062 152.726562 135.730469 153.582031 136.453125 C 153.886719 136.683594 153.90625 133.007812 153.90625 83.75 C 153.90625 30.796875 153.90625 30.796875 155.867188 30.875 C 157.769531 30.929688 157.808594 30.929688 157.789062 30.492188 C 157.789062 30.265625 157.769531 29.558594 157.75 28.929688 C 157.710938 27.675781 157.503906 27.484375 157.046875 28.359375 Z M 157.046875 28.359375 "/>
<path style=" stroke:none;fill-rule:nonzero;fill:rgb(0%,0%,0%);fill-opacity:1;" d="M 138.859375 50.003906 C 138.859375 50.039062 138.839844 51.734375 138.839844 53.789062 C 138.820312 57.539062 138.820312 57.539062 142.585938 57.539062 C 146.355469 57.539062 146.355469 57.539062 146.355469 53.769531 C 146.355469 50.003906 146.355469 50.003906 142.605469 49.984375 C 140.550781 49.964844 138.878906 49.984375 138.859375 50.003906 Z M 144.492188 53.769531 C 144.492188 55.675781 144.492188 55.675781 142.585938 55.675781 C 140.683594 55.675781 140.683594 55.675781 140.628906 53.980469 C 140.550781 51.640625 140.4375 51.753906 142.625 51.808594 C 144.492188 51.867188 144.492188 51.867188 144.492188 53.769531 Z M 144.492188 53.769531 "/>
<path style=" stroke:none;fill-rule:nonzero;fill:rgb(0%,0%,0%);fill-opacity:1;" d="M 161.707031 50.058594 C 161.707031 50.117188 161.707031 62.945312 161.707031 78.589844 C 161.707031 107.027344 161.707031 107.027344 165.417969 107.027344 C 169.144531 107.027344 169.144531 107.027344 169.125 78.515625 C 169.125 50.003906 169.125 50.003906 165.417969 49.984375 C 163.382812 49.984375 161.707031 50.003906 161.707031 50.058594 Z M 167.507812 51.808594 C 167.566406 51.945312 167.527344 64.011719 167.453125 78.609375 C 167.320312 105.164062 167.320312 105.164062 165.417969 105.164062 C 163.515625 105.164062 163.515625 105.164062 163.382812 78.609375 C 163.304688 64.011719 163.285156 51.945312 163.324219 51.808594 C 163.382812 51.65625 163.992188 51.582031 165.417969 51.582031 C 166.84375 51.582031 167.453125 51.65625 167.507812 51.808594 Z M 167.507812 51.808594 "/>
<path style=" stroke:none;fill-rule:nonzero;fill:rgb(0%,0%,0%);fill-opacity:1;" d="M 138.859375 65.285156 C 138.859375 65.34375 138.839844 67.039062 138.839844 69.074219 C 138.820312 72.765625 138.820312 72.765625 142.585938 72.765625 C 146.355469 72.765625 146.355469 72.765625 146.355469 69 C 146.355469 65.230469 146.355469 65.230469 142.605469 65.210938 C 140.550781 65.191406 138.878906 65.230469 138.859375 65.285156 Z M 144.492188 69 C 144.492188 70.902344 144.492188 70.902344 142.453125 70.957031 C 140.398438 71.015625 140.398438 71.015625 140.398438 69 C 140.398438 66.980469 140.398438 66.980469 142.453125 67.039062 C 144.492188 67.09375 144.492188 67.09375 144.492188 69 Z M 144.492188 69 "/>
<path style=" stroke:none;fill-rule:nonzero;fill:rgb(0%,0%,0%);fill-opacity:1;" d="M 138.859375 80.457031 C 138.859375 80.496094 138.839844 82.1875 138.839844 84.246094 C 138.820312 87.992188 138.820312 87.992188 142.585938 87.992188 C 146.355469 87.992188 146.355469 87.992188 146.355469 84.226562 C 146.355469 80.457031 146.355469 80.457031 142.605469 80.4375 C 140.550781 80.417969 138.878906 80.4375 138.859375 80.457031 Z M 144.492188 84.226562 C 144.492188 86.128906 144.492188 86.128906 142.585938 86.128906 C 140.683594 86.128906 140.683594 86.128906 140.628906 84.433594 C 140.550781 82.09375 140.4375 82.207031 142.625 82.265625 C 144.492188 82.320312 144.492188 82.320312 144.492188 84.226562 Z M 144.492188 84.226562 "/>
<path style=" stroke:none;fill-rule:nonzero;fill:rgb(0%,0%,0%);fill-opacity:1;" d="M 138.859375 95.742188 C 138.859375 95.796875 138.839844 97.492188 138.839844 99.527344 C 138.820312 103.222656 138.820312 103.222656 142.585938 103.222656 C 146.355469 103.222656 146.355469 103.222656 146.355469 99.453125 C 146.355469 95.683594 146.355469 95.683594 142.605469 95.664062 C 140.550781 95.644531 138.878906 95.683594 138.859375 95.742188 Z M 144.492188 99.453125 C 144.492188 101.355469 144.492188 101.355469 142.453125 101.414062 C 140.398438 101.46875 140.398438 101.46875 140.398438 99.453125 C 140.398438 97.433594 140.398438 97.433594 142.453125 97.492188 C 144.492188 97.550781 144.492188 97.550781 144.492188 99.453125 Z M 144.492188 99.453125 "/>
<path style=" stroke:none;fill-rule:nonzero;fill:rgb(0%,0%,0%);fill-opacity:1;" d="M 138.859375 110.910156 C 138.859375 110.949219 138.839844 112.644531 138.839844 114.699219 C 138.820312 118.449219 138.820312 118.449219 142.585938 118.449219 C 146.355469 118.449219 146.355469 118.449219 146.355469 114.679688 C 146.355469 110.910156 146.355469 110.910156 142.605469 110.890625 C 140.550781 110.871094 138.878906 110.890625 138.859375 110.910156 Z M 144.492188 114.679688 C 144.492188 116.582031 144.492188 116.582031 142.585938 116.582031 C 140.683594 116.582031 140.683594 116.582031 140.628906 114.890625 C 140.550781 112.546875 140.4375 112.660156 142.625 112.71875 C 144.492188 112.777344 144.492188 112.777344 144.492188 114.679688 Z M 144.492188 114.679688 "/>
<path style=" stroke:none;fill-rule:nonzero;fill:rgb(0%,0%,0%);fill-opacity:1;" d="M 161.648438 114.71875 C 161.632812 114.738281 161.613281 116.429688 161.632812 118.503906 C 161.648438 122.253906 161.648438 122.253906 165.417969 122.253906 C 169.183594 122.253906 169.183594 122.253906 169.183594 118.488281 C 169.183594 114.71875 169.183594 114.71875 165.417969 114.699219 C 163.363281 114.679688 161.667969 114.699219 161.648438 114.71875 Z M 167.320312 118.488281 C 167.320312 120.390625 167.320312 120.390625 165.417969 120.390625 C 163.515625 120.390625 163.515625 120.390625 163.457031 118.695312 C 163.382812 116.355469 163.265625 116.46875 165.457031 116.527344 C 167.320312 116.582031 167.320312 116.582031 167.320312 118.488281 Z M 167.320312 118.488281 "/>
<path style=" stroke:none;fill-rule:nonzero;fill:rgb(0%,0%,0%);fill-opacity:1;" d="M 146.46875 137.617188 C 146.449219 137.671875 146.46875 139.40625 146.488281 141.480469 C 146.527344 145.265625 146.527344 145.265625 142.664062 145.210938 C 138.800781 145.152344 138.800781 145.152344 138.859375 149.015625 C 138.917969 152.878906 138.917969 152.878906 135.054688 152.824219 C 131.191406 152.765625 131.191406 152.765625 131.25 156.628906 C 131.304688 160.496094 131.304688 160.496094 127.464844 160.4375 C 123.640625 160.378906 123.640625 160.378906 123.660156 187.085938 C 123.660156 213.789062 123.660156 213.789062 121.71875 213.730469 C 119.757812 213.65625 119.757812 213.65625 119.835938 217.367188 C 119.855469 219.40625 119.910156 221.097656 119.910156 221.117188 C 119.929688 221.117188 121.621094 221.175781 123.660156 221.195312 C 127.367188 221.269531 127.367188 221.269531 127.292969 217.40625 C 127.234375 213.5625 127.234375 213.5625 129.269531 213.5625 C 131.304688 213.5625 131.304688 213.5625 131.25 217.40625 C 131.171875 221.269531 131.171875 221.269531 135.035156 221.195312 C 138.917969 221.136719 138.917969 221.136719 138.859375 224.980469 C 138.800781 228.824219 138.800781 228.824219 154.003906 228.824219 C 169.203125 228.84375 169.203125 228.84375 169.144531 224.980469 C 169.089844 221.136719 169.089844 221.136719 172.96875 221.195312 C 176.832031 221.269531 176.832031 221.269531 176.753906 217.40625 C 176.699219 213.542969 176.699219 213.542969 180.523438 213.578125 C 184.347656 213.597656 184.347656 213.597656 184.347656 186.988281 C 184.367188 160.378906 184.367188 160.378906 180.523438 160.4375 C 176.699219 160.496094 176.699219 160.496094 176.753906 156.613281 C 176.832031 152.746094 176.832031 152.746094 172.949219 152.824219 C 169.089844 152.878906 169.089844 152.878906 169.144531 149.015625 C 169.222656 145.132812 169.222656 145.132812 165.339844 145.210938 C 161.480469 145.265625 161.480469 145.265625 161.535156 141.421875 C 161.613281 137.578125 161.613281 137.578125 154.058594 137.539062 C 149.894531 137.539062 146.46875 137.558594 146.46875 137.617188 Z M 156.816406 139.308594 C 159.730469 139.289062 159.804688 139.347656 159.804688 141.515625 C 159.804688 142.546875 159.730469 143.15625 159.558594 143.289062 C 159.40625 143.421875 157.371094 143.496094 154.039062 143.535156 C 147.667969 143.59375 148.027344 143.726562 147.953125 141.230469 C 147.933594 140.335938 147.992188 139.5 148.085938 139.347656 C 148.21875 139.15625 148.867188 139.117188 151.414062 139.214844 C 153.144531 139.269531 155.582031 139.308594 156.816406 139.308594 Z M 161.460938 145.285156 C 161.535156 145.382812 161.632812 147.09375 161.667969 149.09375 C 161.726562 152.746094 161.726562 152.746094 165.132812 152.746094 C 169.527344 152.746094 169.222656 152.460938 169.222656 156.460938 C 169.222656 158.113281 169.144531 159.542969 169.070312 159.617188 C 168.992188 159.714844 168.652344 159.617188 168.308594 159.449219 C 167.738281 159.144531 166.652344 159.105469 154.289062 159.105469 C 146.90625 159.105469 140.703125 159.160156 140.496094 159.238281 C 140.039062 159.410156 139.449219 159.886719 139.449219 160.113281 C 139.449219 160.191406 146.144531 160.265625 154.34375 160.265625 C 172.796875 160.285156 176.46875 160.324219 176.679688 160.511719 C 176.890625 160.722656 176.890625 213.292969 176.679688 213.503906 C 176.585938 213.578125 168.234375 213.675781 158.128906 213.714844 C 148.007812 213.730469 139.621094 213.789062 139.46875 213.847656 C 139.296875 213.921875 139.371094 214.074219 139.753906 214.378906 C 140.285156 214.796875 140.285156 214.796875 153.90625 214.894531 C 167.507812 214.988281 167.507812 214.988281 168.234375 214.53125 C 168.613281 214.285156 169.011719 214.132812 169.089844 214.207031 C 169.355469 214.472656 169.242188 220.753906 168.976562 221.023438 C 168.613281 221.382812 139.390625 221.382812 139.03125 221.023438 C 138.839844 220.832031 138.78125 219.878906 138.78125 217.214844 C 138.765625 213.65625 138.765625 213.65625 135.664062 213.714844 C 132.257812 213.789062 131.628906 213.65625 131.289062 212.835938 C 131.136719 212.476562 131.078125 204.996094 131.117188 186.664062 C 131.171875 160.988281 131.171875 160.988281 131.648438 160.609375 C 132.085938 160.246094 132.332031 160.226562 135.453125 160.285156 C 138.78125 160.359375 138.78125 160.359375 138.78125 156.878906 C 138.78125 152.289062 138.496094 152.574219 143.023438 152.691406 C 146.296875 152.765625 146.296875 152.765625 146.296875 149.433594 C 146.296875 145.800781 146.375 145.285156 146.847656 145.152344 C 147.402344 145 161.289062 145.132812 161.460938 145.285156 Z M 144.492188 149.132812 C 144.492188 151.226562 144.492188 151.226562 142.585938 151.226562 C 140.683594 151.226562 140.683594 151.226562 140.628906 149.339844 C 140.609375 148.292969 140.628906 147.324219 140.667969 147.191406 C 140.742188 146.980469 141.199219 146.941406 142.625 146.980469 C 144.492188 147.039062 144.492188 147.039062 144.492188 149.132812 Z M 166.9375 149.320312 C 166.9375 151.226562 166.9375 151.226562 165.226562 151.226562 C 163.515625 151.226562 163.515625 151.226562 163.457031 149.53125 C 163.382812 147.207031 163.304688 147.304688 165.265625 147.359375 C 166.9375 147.417969 166.9375 147.417969 166.9375 149.320312 Z M 137.46875 154.574219 C 137.660156 154.898438 137.546875 158.820312 137.335938 159.027344 C 137.222656 159.144531 137.03125 159.125 136.785156 158.972656 C 136.558594 158.839844 136.386719 158.820312 136.308594 158.933594 C 136.15625 159.179688 135.320312 159.179688 135.148438 158.914062 C 135.074219 158.761719 134.976562 158.761719 134.824219 158.914062 C 134.710938 159.027344 134.3125 159.125 133.933594 159.125 C 132.921875 159.125 132.675781 158.570312 132.753906 156.402344 C 132.789062 155.449219 132.847656 154.613281 132.90625 154.519531 C 133.054688 154.269531 137.316406 154.328125 137.46875 154.574219 Z M 174.546875 156.746094 C 174.546875 158.457031 174.546875 158.457031 172.644531 158.457031 C 170.742188 158.457031 170.742188 158.457031 170.6875 156.953125 C 170.609375 154.820312 170.515625 154.917969 172.683594 154.972656 C 174.546875 155.03125 174.546875 155.03125 174.546875 156.746094 Z M 129.785156 179.015625 C 129.859375 188.226562 129.976562 199.324219 130.03125 203.664062 C 130.125 211.5625 130.125 211.5625 129.613281 211.789062 C 129.328125 211.925781 128.8125 212.039062 128.492188 212.039062 C 128.148438 212.039062 127.558594 212.210938 127.195312 212.4375 C 126.796875 212.667969 126.285156 212.800781 125.902344 212.761719 C 125.277344 212.703125 125.277344 212.703125 125.21875 206.234375 C 125.199219 202.671875 125.21875 199.648438 125.277344 199.496094 C 125.332031 199.363281 125.371094 190.949219 125.371094 180.824219 C 125.371094 170.714844 125.429688 162.359375 125.503906 162.285156 C 125.578125 162.226562 126.53125 162.1875 127.632812 162.207031 C 129.652344 162.265625 129.652344 162.265625 129.785156 179.015625 Z M 182.597656 162.398438 C 182.917969 162.722656 182.917969 211.296875 182.597656 211.621094 C 182.292969 211.925781 178.980469 211.925781 178.675781 211.621094 C 178.523438 211.46875 178.449219 210.707031 178.449219 209.449219 C 178.449219 208.382812 178.355469 207.050781 178.238281 206.5 C 177.992188 205.203125 178.011719 201.96875 178.277344 201.644531 C 178.390625 201.511719 178.390625 201.378906 178.296875 201.304688 C 178.125 201.207031 178.03125 199.914062 178.105469 199 C 178.125 198.789062 178.144531 195.917969 178.144531 192.625 C 178.164062 189.332031 178.21875 186.53125 178.316406 186.398438 C 178.390625 186.285156 178.371094 186.132812 178.257812 186.058594 C 178.164062 186 178.085938 185.617188 178.085938 185.238281 C 178.144531 183.449219 178.144531 175.777344 178.105469 173.324219 C 178.085938 172.238281 178.164062 171.324219 178.277344 171.191406 C 178.410156 171.039062 178.390625 170.925781 178.238281 170.828125 C 178.125 170.753906 178.066406 170.46875 178.144531 170.164062 C 178.203125 169.859375 178.164062 169.363281 178.085938 169.058594 C 177.972656 168.660156 177.992188 168.335938 178.183594 167.972656 C 178.371094 167.613281 178.449219 166.738281 178.449219 165.042969 C 178.449219 163.425781 178.523438 162.550781 178.675781 162.398438 C 178.828125 162.246094 179.550781 162.167969 180.636719 162.167969 C 181.722656 162.167969 182.445312 162.246094 182.597656 162.398438 Z M 126.855469 213.847656 C 126.929688 213.921875 126.894531 214.035156 126.777344 214.074219 C 126.054688 214.320312 125.960938 214.609375 125.828125 216.835938 C 125.75 218.261719 125.597656 219.15625 125.464844 219.269531 C 125.3125 219.386719 124.476562 219.460938 123.449219 219.421875 C 121.660156 219.367188 121.660156 219.367188 121.660156 217.460938 C 121.660156 215.558594 121.660156 215.558594 122.554688 215.332031 C 123.753906 215.046875 123.886719 214.949219 123.8125 214.359375 C 123.753906 213.941406 123.847656 213.828125 124.324219 213.714844 C 125.007812 213.5625 126.664062 213.636719 126.855469 213.847656 Z M 134.65625 214.929688 C 134.84375 215.121094 134.921875 215.121094 135.054688 214.929688 C 135.226562 214.644531 137.300781 214.816406 137.488281 215.140625 C 137.699219 215.484375 137.566406 218.910156 137.335938 219.195312 C 137.183594 219.386719 136.59375 219.460938 135.054688 219.460938 C 132.980469 219.460938 132.980469 219.460938 132.980469 217.445312 C 132.980469 216.339844 133.074219 215.273438 133.171875 215.066406 C 133.398438 214.644531 134.292969 214.570312 134.65625 214.929688 Z M 174.929688 217.460938 C 174.929688 219.367188 174.929688 219.367188 172.835938 219.367188 C 170.742188 219.367188 170.742188 219.367188 170.6875 217.671875 C 170.648438 216.738281 170.6875 215.84375 170.726562 215.710938 C 170.800781 215.503906 171.296875 215.464844 172.875 215.503906 C 174.929688 215.558594 174.929688 215.558594 174.929688 217.460938 Z M 165.207031 222.660156 C 165.304688 222.832031 166.042969 222.8125 166.5 222.601562 C 167.414062 222.222656 167.507812 222.46875 167.507812 224.867188 C 167.507812 227.4375 167.359375 227.742188 166.332031 227.226562 C 165.625 226.882812 151.226562 226.921875 149.625 227.285156 C 148.636719 227.492188 144.203125 227.417969 141.921875 227.132812 C 140.683594 226.980469 140.683594 226.980469 140.683594 224.886719 C 140.683594 222.792969 140.683594 222.792969 145.515625 222.753906 C 148.160156 222.734375 150.386719 222.679688 150.445312 222.601562 C 150.617188 222.449219 165.09375 222.488281 165.207031 222.660156 Z M 165.207031 222.660156 "/>
<path style=" stroke:none;fill-rule:nonzero;fill:rgb(0%,0%,0%);fill-opacity:1;" d="M 146.753906 152.957031 C 146.394531 153.109375 146.679688 153.792969 147.132812 153.890625 C 147.34375 153.945312 150.617188 153.964844 154.382812 153.945312 C 161.230469 153.890625 161.230469 153.890625 161.230469 153.414062 C 161.230469 152.9375 161.230469 152.9375 154.097656 152.898438 C 150.179688 152.878906 146.867188 152.917969 146.753906 152.957031 Z M 146.753906 152.957031 "/>
<path style=" stroke:none;fill-rule:nonzero;fill:rgb(0%,0%,0%);fill-opacity:1;" d="M 137.964844 161.351562 C 137.527344 161.84375 137.527344 161.941406 137.585938 164.835938 C 137.660156 167.839844 137.660156 167.839844 138.269531 168.355469 C 138.613281 168.640625 138.878906 169.003906 138.878906 169.171875 C 138.878906 169.402344 138.933594 169.421875 139.105469 169.25 C 139.257812 169.097656 139.410156 169.097656 139.714844 169.25 C 140 169.402344 144.929688 169.421875 157.710938 169.324219 C 175.253906 169.210938 175.308594 169.191406 175.652344 168.8125 C 175.824219 168.582031 175.976562 168.335938 175.976562 168.242188 C 175.976562 168.144531 168.082031 168.070312 157.332031 168.070312 C 138.6875 168.070312 138.6875 168.070312 138.6875 164.453125 C 138.6875 162.453125 138.628906 160.835938 138.554688 160.835938 C 138.460938 160.835938 138.210938 161.066406 137.964844 161.351562 Z M 137.964844 161.351562 "/>
<path style=" stroke:none;fill-rule:nonzero;fill:rgb(0%,0%,0%);fill-opacity:1;" d="M 140.019531 174.292969 C 139.335938 174.351562 139.03125 174.523438 138.441406 175.132812 C 137.699219 175.894531 137.699219 175.894531 137.738281 179.507812 C 137.753906 183.144531 137.753906 183.144531 138.308594 183.621094 C 138.628906 183.886719 138.878906 184.230469 138.878906 184.402344 C 138.878906 184.628906 138.933594 184.648438 139.105469 184.476562 C 139.257812 184.324219 139.410156 184.324219 139.714844 184.476562 C 140 184.628906 144.929688 184.648438 157.710938 184.554688 C 175.253906 184.4375 175.308594 184.421875 175.652344 184.039062 C 175.824219 183.8125 175.976562 183.5625 175.976562 183.46875 C 175.976562 183.375 168.082031 183.296875 157.332031 183.296875 C 138.6875 183.296875 138.6875 183.296875 138.6875 179.394531 C 138.6875 175.492188 138.6875 175.492188 157.332031 175.492188 C 168.082031 175.492188 175.976562 175.417969 175.976562 175.320312 C 175.976562 175.226562 175.824219 174.980469 175.652344 174.75 C 175.308594 174.371094 175.253906 174.371094 158.09375 174.273438 C 148.617188 174.238281 140.496094 174.238281 140.019531 174.292969 Z M 140.019531 174.292969 "/>
<path style=" stroke:none;fill-rule:nonzero;fill:rgb(0%,0%,0%);fill-opacity:1;" d="M 139.960938 189.519531 C 139.238281 189.578125 138.992188 189.710938 138.648438 190.167969 C 138.421875 190.472656 138.117188 190.71875 137.984375 190.71875 C 137.792969 190.71875 137.738281 191.519531 137.738281 194.546875 C 137.738281 198.351562 137.738281 198.351562 138.308594 198.847656 C 138.628906 199.09375 138.878906 199.457031 138.878906 199.628906 C 138.878906 199.855469 138.933594 199.875 139.105469 199.703125 C 139.257812 199.550781 139.410156 199.550781 139.714844 199.703125 C 140 199.855469 144.929688 199.875 157.710938 199.78125 C 175.253906 199.667969 175.308594 199.648438 175.652344 199.265625 C 175.824219 199.039062 175.976562 198.789062 175.976562 198.695312 C 175.976562 198.601562 168.082031 198.523438 157.332031 198.523438 C 138.6875 198.523438 138.6875 198.523438 138.6875 194.621094 C 138.6875 190.71875 138.6875 190.71875 157.332031 190.71875 C 168.082031 190.71875 175.976562 190.644531 175.976562 190.550781 C 175.976562 190.453125 175.824219 190.207031 175.652344 189.976562 C 175.308594 189.597656 175.253906 189.597656 158.09375 189.503906 C 148.617188 189.464844 140.476562 189.464844 139.960938 189.519531 Z M 139.960938 189.519531 "/>
<path style=" stroke:none;fill-rule:nonzero;fill:rgb(0%,0%,0%);fill-opacity:1;" d="M 140.019531 204.75 C 139.335938 204.824219 139.011719 204.976562 138.34375 205.679688 C 137.507812 206.519531 137.507812 206.519531 137.585938 209.449219 C 137.640625 212.210938 137.660156 212.417969 138.058594 212.78125 C 138.289062 213.007812 138.535156 213.179688 138.59375 213.179688 C 138.648438 213.179688 138.6875 211.542969 138.6875 209.5625 C 138.6875 205.949219 138.6875 205.949219 157.332031 205.949219 C 168.082031 205.949219 175.976562 205.871094 175.976562 205.777344 C 175.976562 205.679688 175.824219 205.433594 175.652344 205.203125 C 175.308594 204.824219 175.253906 204.824219 158.09375 204.730469 C 148.617188 204.691406 140.496094 204.691406 140.019531 204.75 Z M 140.019531 204.75 "/>
<path style=" stroke:none;fill-rule:nonzero;fill:rgb(0%,0%,0%);fill-opacity:1;" d="M 132.921875 210.363281 C 133.074219 210.535156 133.398438 210.707031 133.628906 210.742188 C 133.914062 210.78125 134.046875 210.972656 134.121094 211.449219 C 134.234375 212.210938 134.691406 212.496094 134.691406 211.808594 C 134.691406 211.5625 134.75 211.066406 134.808594 210.667969 C 134.921875 209.984375 134.921875 209.984375 133.78125 210 C 132.695312 210.039062 132.636719 210.058594 132.921875 210.363281 Z M 132.921875 210.363281 "/>
<path style=" stroke:none;fill-rule:nonzero;fill:rgb(0%,0%,0%);fill-opacity:1;" d="M 215.222656 155.089844 C 214.824219 155.316406 214.386719 155.566406 214.273438 155.621094 C 214.136719 155.699219 214.023438 155.867188 214.023438 156.019531 C 214.023438 156.171875 213.835938 156.460938 213.625 156.628906 C 213.207031 156.953125 213.207031 156.953125 213.226562 202.0625 C 213.226562 265.351562 213.246094 269.84375 213.53125 270.359375 C 213.664062 270.605469 214.042969 271.136719 214.40625 271.539062 C 215.050781 272.28125 215.050781 272.28125 218.683594 272.28125 C 222.320312 272.28125 222.320312 272.28125 222.964844 271.539062 C 224.070312 270.28125 224.050781 270.453125 224.089844 263.523438 C 224.105469 259.964844 224.164062 257.015625 224.222656 256.9375 C 224.335938 256.730469 224.296875 178.386719 224.183594 166.757812 C 224.070312 156.953125 224.070312 156.953125 223.421875 156.15625 C 222.375 154.878906 221.824219 154.707031 218.683594 154.667969 C 216.175781 154.652344 215.90625 154.6875 215.222656 155.089844 Z M 222.585938 213.65625 C 222.585938 270.851562 222.585938 270.851562 218.683594 270.851562 C 214.785156 270.851562 214.785156 270.851562 214.785156 213.65625 C 214.785156 156.460938 214.785156 156.460938 218.683594 156.460938 C 222.585938 156.460938 222.585938 156.460938 222.585938 213.65625 Z M 222.585938 213.65625 "/>
<path style=" stroke:none;fill-rule:nonzero;fill:rgb(0%,0%,0%);fill-opacity:1;" d="M 92.992188 155.089844 C 89.832031 155.125 89.832031 155.125 88.976562 155.984375 C 88.140625 156.839844 88.140625 156.839844 88.027344 166.964844 C 87.855469 180.097656 87.855469 243.40625 88.027344 256.519531 C 88.140625 266.648438 88.140625 266.648438 88.882812 267.425781 C 89.625 268.1875 89.625 268.1875 92.933594 268.1875 C 96.148438 268.1875 96.261719 268.167969 96.949219 267.710938 C 98.203125 266.855469 98.148438 267.199219 98.164062 260.078125 C 98.164062 256.519531 98.203125 253.550781 98.261719 253.492188 C 98.316406 253.457031 98.355469 234.746094 98.355469 211.941406 C 98.355469 189.140625 98.316406 170.429688 98.261719 170.390625 C 98.203125 170.335938 98.164062 167.308594 98.164062 163.652344 C 98.164062 156.308594 98.222656 156.628906 96.871094 155.582031 C 96.167969 155.03125 96.167969 155.03125 92.992188 155.089844 Z M 97.023438 211.753906 C 97.023438 267.046875 97.023438 267.046875 93.125 267.046875 C 89.222656 267.046875 89.222656 267.046875 89.222656 211.753906 C 89.222656 156.460938 89.222656 156.460938 93.125 156.460938 C 97.023438 156.460938 97.023438 156.460938 97.023438 211.753906 Z M 97.023438 211.753906 "/>
<path style=" stroke:none;fill-rule:nonzero;fill:rgb(0%,0%,0%);fill-opacity:1;" d="M 237.0625 206.5 C 236.929688 206.746094 236.855469 209.164062 236.855469 213.238281 C 236.855469 219.289062 236.871094 219.632812 237.234375 220.050781 C 237.59375 220.507812 237.59375 220.488281 237.613281 213.425781 C 237.613281 206.59375 237.539062 205.605469 237.0625 206.5 Z M 237.0625 206.5 "/>
<path style=" stroke:none;fill-rule:nonzero;fill:rgb(0%,0%,0%);fill-opacity:1;" d="M 187.828125 213.695312 C 184.535156 213.75 184.535156 213.75 184.5 216.890625 C 184.480469 218.625 184.460938 220.316406 184.460938 220.640625 C 184.441406 221.269531 184.441406 221.269531 188.152344 221.195312 C 190.1875 221.175781 191.878906 221.117188 191.878906 221.117188 C 191.898438 221.097656 191.957031 219.40625 191.976562 217.367188 C 192.050781 213.65625 192.050781 213.65625 191.574219 213.65625 C 191.308594 213.636719 189.617188 213.675781 187.828125 213.695312 Z M 190.207031 217.425781 C 190.261719 219.652344 190.207031 219.707031 187.828125 219.5 C 186.34375 219.367188 186.34375 219.367188 186.285156 217.671875 C 186.210938 215.332031 186.097656 215.445312 188.285156 215.503906 C 190.148438 215.558594 190.148438 215.558594 190.207031 217.425781 Z M 190.207031 217.425781 "/>
<path style=" stroke:none;fill-rule:nonzero;fill:rgb(0%,0%,0%);fill-opacity:1;" d="M 66.492188 225.078125 C 66.492188 228.789062 66.492188 228.789062 74.101562 228.789062 C 81.710938 228.789062 81.710938 228.789062 81.710938 225.078125 C 81.710938 221.363281 81.710938 221.363281 74.101562 221.363281 C 66.492188 221.363281 66.492188 221.363281 66.492188 225.078125 Z M 80.1875 225.078125 C 80.1875 226.980469 80.1875 226.980469 74.101562 226.980469 C 68.011719 226.980469 68.011719 226.980469 67.957031 225.285156 C 67.917969 224.351562 67.9375 223.476562 67.992188 223.324219 C 68.089844 223.117188 69.230469 223.078125 74.136719 223.117188 C 80.1875 223.171875 80.1875 223.171875 80.1875 225.078125 Z M 80.1875 225.078125 "/>
<path style=" stroke:none;fill-rule:nonzero;fill:rgb(0%,0%,0%);fill-opacity:1;" d="M 104.539062 225.078125 C 104.539062 228.789062 104.539062 228.789062 112.109375 228.789062 C 119.664062 228.789062 119.664062 228.789062 119.664062 225.078125 C 119.664062 221.363281 119.664062 221.363281 112.109375 221.363281 C 104.539062 221.363281 104.539062 221.363281 104.539062 225.078125 Z M 118.101562 223.324219 C 118.238281 223.476562 118.238281 223.667969 118.140625 223.839844 C 118.027344 223.992188 117.953125 224.789062 117.953125 225.589844 C 117.953125 227.074219 117.953125 227.074219 112.074219 227.074219 C 107.847656 227.074219 106.136719 227.019531 106.042969 226.867188 C 105.964844 226.730469 105.910156 225.933594 105.910156 225.078125 C 105.910156 224.21875 105.964844 223.421875 106.042969 223.289062 C 106.25 222.964844 117.835938 222.984375 118.101562 223.324219 Z M 118.101562 223.324219 "/>
<path style=" stroke:none;fill-rule:nonzero;fill:rgb(0%,0%,0%);fill-opacity:1;" d="M 192.144531 225.078125 C 192.144531 228.789062 192.144531 228.789062 199.71875 228.789062 C 207.269531 228.789062 207.269531 228.789062 207.269531 225.078125 C 207.269531 221.363281 207.269531 221.363281 199.71875 221.363281 C 192.144531 221.363281 192.144531 221.363281 192.144531 225.078125 Z M 205.75 225.078125 C 205.75 226.980469 205.75 226.980469 199.851562 226.980469 C 193.953125 226.980469 193.953125 226.980469 193.898438 225.285156 C 193.859375 224.351562 193.878906 223.476562 193.933594 223.324219 C 194.03125 223.117188 195.132812 223.078125 199.890625 223.117188 C 205.75 223.171875 205.75 223.171875 205.75 225.078125 Z M 205.75 225.078125 "/>
<path style=" stroke:none;fill-rule:nonzero;fill:rgb(0%,0%,0%);fill-opacity:1;" d="M 123.144531 228.921875 C 119.855469 228.976562 119.855469 228.976562 119.816406 232.214844 C 119.796875 234.003906 119.777344 235.679688 119.777344 235.964844 C 119.757812 236.457031 119.757812 236.457031 123.542969 236.457031 C 127.332031 236.457031 127.332031 236.457031 127.332031 232.671875 C 127.332031 228.882812 127.332031 228.882812 126.875 228.882812 C 126.625 228.863281 124.933594 228.902344 123.144531 228.921875 Z M 125.75 232.386719 C 125.75 234.726562 125.75 234.726562 123.449219 234.652344 C 121.660156 234.59375 121.660156 234.59375 121.605469 232.804688 C 121.566406 231.679688 121.621094 230.9375 121.773438 230.769531 C 121.964844 230.539062 125.160156 230.292969 125.617188 230.464844 C 125.695312 230.5 125.75 231.359375 125.75 232.386719 Z M 125.75 232.386719 "/>
<path style=" stroke:none;fill-rule:nonzero;fill:rgb(0%,0%,0%);fill-opacity:1;" d="M 184.480469 228.902344 C 184.460938 228.921875 184.441406 230.632812 184.460938 232.710938 C 184.480469 236.457031 184.480469 236.457031 188.265625 236.457031 C 192.050781 236.457031 192.050781 236.457031 191.976562 232.765625 C 191.957031 230.730469 191.898438 229.054688 191.878906 229.054688 C 191.84375 228.996094 184.515625 228.863281 184.480469 228.902344 Z M 190.015625 230.804688 C 190.1875 230.863281 190.242188 231.339844 190.207031 232.726562 C 190.148438 234.59375 190.148438 234.59375 188.246094 234.59375 C 186.34375 234.59375 186.34375 234.59375 186.285156 232.726562 C 186.230469 230.957031 186.25 230.863281 186.667969 230.710938 C 187.066406 230.578125 189.464844 230.632812 190.015625 230.804688 Z M 190.015625 230.804688 "/>
<path style=" stroke:none;fill-rule:nonzero;fill:rgb(0%,0%,0%);fill-opacity:1;" d="M 165.511719 248.203125 C 165.511719 267.046875 165.511719 267.046875 157.808594 267.027344 C 150.101562 267.027344 150.101562 267.027344 150.101562 248.296875 C 150.101562 235.734375 150.046875 229.550781 149.914062 229.550781 C 149.796875 229.550781 149.550781 229.816406 149.359375 230.121094 C 149.054688 230.652344 149.019531 231.414062 148.902344 239.5625 C 148.847656 244.453125 148.847656 252.542969 148.902344 257.546875 C 149.054688 268.929688 148.617188 268.074219 154.230469 268.285156 C 156.304688 268.359375 159.632812 268.4375 161.613281 268.453125 C 165.226562 268.472656 165.226562 268.472656 165.757812 267.980469 C 166.042969 267.695312 166.273438 267.40625 166.273438 267.3125 C 166.273438 267.21875 166.445312 266.933594 166.652344 266.664062 C 167.015625 266.207031 167.035156 265.847656 167.035156 259.679688 C 167.035156 256.101562 167.089844 253.132812 167.1875 253.09375 C 167.261719 253.039062 167.261719 251.417969 167.207031 249.496094 C 167.128906 247.59375 167.070312 243.519531 167.054688 240.476562 C 167.015625 232.175781 166.902344 230.425781 166.3125 229.835938 C 166.042969 229.570312 165.757812 229.359375 165.683594 229.359375 C 165.589844 229.359375 165.511719 237.753906 165.511719 248.203125 Z M 165.511719 248.203125 "/>
<path style=" stroke:none;fill-rule:nonzero;fill:rgb(0%,0%,0%);fill-opacity:1;" d="M 157.179688 230.214844 C 156.816406 230.671875 156.800781 231.207031 156.664062 244.339844 C 156.476562 262.554688 156.628906 266.285156 157.539062 266.285156 C 157.636719 266.285156 157.710938 258.5 157.710938 248.011719 C 157.710938 237.960938 157.675781 229.738281 157.636719 229.738281 C 157.578125 229.738281 157.390625 229.949219 157.179688 230.214844 Z M 157.179688 230.214844 "/>
<path style=" stroke:none;fill-rule:nonzero;fill:rgb(0%,0%,0%);fill-opacity:1;" d="M 237.195312 230.121094 C 236.738281 230.75 236.683594 235.546875 237.121094 236.136719 C 237.558594 236.726562 237.632812 236.210938 237.578125 232.785156 C 237.519531 229.738281 237.5 229.664062 237.195312 230.121094 Z M 237.195312 230.121094 "/>
</g>
</svg>
