<?xml version="1.0" standalone="no"?>
<!DOCTYPE svg PUBLIC "-//W3C//DTD SVG 20010904//EN"
 "http://www.w3.org/TR/2001/REC-SVG-20010904/DTD/svg10.dtd">
<svg version="1.0" xmlns="http://www.w3.org/2000/svg"
 width="1640.000000pt" height="1602.000000pt" viewBox="0 0 1640.000000 1602.000000"
 preserveAspectRatio="xMidYMid meet">
<g transform="translate(0.000000,1602.000000) scale(0.100000,-0.100000)"
fill="#000000" stroke="none">
<path d="M7899 15190 c0 -3 0 -139 1 -304 2 -298 2 -298 -202 -295 -203 4
-203 4 -199 -200 3 -203 3 -203 -200 -200 -204 4 -204 4 -200 -200 3 -203 3
-203 -198 -200 -202 4 -202 4 -201 -1400 0 -1403 0 -1403 -201 -1400 -201 4
-201 4 -200 -996 1 -1000 1 -1000 201 -996 200 3 200 3 200 -404 0 -407 0
-407 -202 -404 -203 4 -203 4 -199 -200 3 -203 3 -203 -200 -200 -204 4 -204
4 -200 -198 3 -203 3 -203 -204 -203 -206 0 -206 0 -204 403 2 402 2 402 -201
398 -203 -3 -203 -3 -199 200 4 203 4 203 -196 203 -200 0 -200 0 -196 -203 4
-203 4 -203 -198 -200 -202 4 -202 4 -201 -1000 1 -1003 1 -1003 -202 -1000
-203 4 -203 4 -199 -200 3 -203 3 -203 -200 -200 -204 4 -204 4 -200 -200 3
-203 3 -203 -198 -200 -202 4 -202 4 -202 -896 0 -900 0 -900 202 -896 201 3
201 3 198 -200 -4 -204 -4 -204 200 -200 203 3 203 3 200 -200 -4 -204 -4
-204 199 -200 203 3 203 3 202 -600 -2 -604 -2 -604 100 -600 101 3 101 3 98
-200 -3 -204 -3 -204 101 -201 104 3 104 3 100 -200 -4 -203 -4 -203 196 -203
200 0 200 0 197 203 -3 203 -3 203 100 200 103 -3 103 -3 99 201 -4 203 -4
203 100 200 104 -4 104 -4 100 200 -3 203 -3 203 200 200 204 -4 204 -4 200
199 -3 202 -3 202 403 202 406 0 406 0 406 -206 0 -206 0 -206 -202 -203 -201
4 -201 4 -201 -196 0 -200 0 -200 203 -196 202 3 202 3 199 -200 -4 -204 -4
-204 1496 -204 1500 0 1500 0 1496 204 -4 203 -4 203 199 200 203 -4 203 -4
203 196 1 200 1 200 -201 196 -202 -3 -202 -3 -202 203 0 206 0 206 406 206
406 0 406 0 403 -202 -4 -203 -4 -203 200 -199 203 3 203 3 200 -200 -4 -204
-4 -204 99 -200 103 3 103 3 100 -200 -3 -204 -3 -204 101 -201 104 3 104 3
100 -200 -4 -203 -4 -203 196 -203 200 0 200 0 196 203 -4 203 -4 203 100 200
104 -3 104 -3 100 201 -4 204 -4 204 99 200 102 -4 102 -4 100 600 -1 603 -1
603 202 600 203 -4 203 -4 199 200 -3 203 -3 203 200 200 204 -4 204 -4 200
200 -3 203 -3 203 198 200 202 -4 202 -4 202 796 0 800 0 800 -202 796 -201
-3 -201 -3 -198 200 4 204 4 204 -200 200 -203 -3 -203 -3 -200 200 4 204 4
204 -199 200 -203 -3 -203 -3 -202 1100 1 1104 1 1104 -201 1100 -201 -3 -201
-3 -198 200 4 204 4 204 -196 204 -200 -1 -200 -1 -196 -204 4 -203 4 -203
-199 -200 -203 4 -203 4 -201 -398 2 -403 2 -403 -204 -403 -207 0 -207 0
-204 203 4 202 4 202 -200 198 -203 -3 -203 -3 -200 200 4 204 4 204 -198 200
-203 -3 -203 -3 -203 404 0 407 0 407 200 404 200 -4 200 -4 201 996 1 1000 1
1000 -200 996 -202 -4 -202 -4 -201 1400 1 1404 1 1404 -201 1400 -201 -3
-201 -3 -198 200 4 204 4 204 -200 200 -203 -3 -203 -3 -200 200 4 204 4 204
-199 200 -204 -3 -204 -3 -201 299 3 302 3 302 -294 304 -163 0 -297 -1 -298
-4z m483 -107 c16 -14 18 -34 18 -198 0 -134 -3 -185 -12 -193 -15 -12 -108
-20 -108 -10 0 5 -7 8 -15 8 -8 0 -12 -6 -10 -12 4 -10 -23 -12 -122 -9 -71 1
-130 5 -133 8 -3 2 -7 90 -8 194 -5 248 -22 229 201 229 145 0 173 -3 189 -17z
m105 -496 c4 -5 8 -95 9 -200 1 -191 1 -191 192 -191 104 -1 194 -5 199 -9 4
-5 8 -95 9 -199 0 -191 0 -191 191 -192 105 -1 195 -5 200 -9 4 -5 9 -1265 10
-2799 3 -2791 3 -2791 192 -2792 104 -1 193 -5 198 -9 4 -5 9 -128 10 -275 1
-146 5 -272 8 -279 3 -11 10 -11 25 -3 27 14 27 74 0 118 -19 31 -19 33 -3 40
25 10 350 9 360 -1 4 -5 9 -94 10 -199 1 -190 1 -190 191 -191 105 -1 194 -6
199 -10 4 -5 9 -95 9 -200 1 -191 1 -191 203 -188 201 3 201 3 203 -1295 2
-968 6 -1298 15 -1301 29 -10 40 52 41 243 1 104 5 349 8 544 4 195 3 678 -1
1072 -7 717 -7 717 -52 762 -44 45 -44 45 -191 48 -147 3 -147 3 -147 103 0
100 0 100 146 105 142 5 147 6 180 34 62 53 88 96 89 149 0 26 5 47 10 47 6 0
10 7 10 15 0 8 -4 15 -10 15 -6 0 -10 94 -10 263 0 323 -12 300 152 297 166
-3 154 -6 164 42 11 53 21 56 189 56 168 0 178 -3 189 -56 10 -48 -2 -45 164
-42 76 1 117 -2 127 -10 13 -11 15 -79 14 -469 -1 -251 -4 -550 -8 -664 -4
-157 -3 -211 6 -220 9 -9 13 -104 14 -369 1 -358 1 -358 47 -409 59 -66 75
-72 212 -78 115 -6 115 -6 115 -106 0 -100 0 -100 -137 -105 -131 -5 -139 -6
-163 -31 -40 -40 -45 -106 -45 -670 0 -532 3 -573 40 -566 13 2 15 78 18 601
2 598 2 598 196 595 107 -2 198 -8 203 -12 4 -5 8 -93 8 -197 0 -189 0 -189
192 -192 105 -2 195 -7 200 -11 4 -5 9 -186 11 -403 3 -395 3 -395 -215 -394
-646 4 -588 23 -588 -195 0 -218 -58 -199 588 -195 219 1 219 1 215 -194 -2
-107 -7 -198 -11 -203 -5 -4 -95 -9 -200 -11 -192 -3 -192 -3 -192 -192 0
-104 -4 -192 -8 -197 -5 -4 -96 -10 -203 -11 -194 -4 -194 -4 -194 392 0 350
-2 397 -16 403 -21 8 -58 -33 -49 -55 4 -9 6 -175 5 -369 -1 -352 -1 -352 40
-393 40 -40 40 -40 173 -40 90 0 137 -4 145 -12 17 -17 16 -192 0 -206 -11 -9
-113 -18 -258 -24 -21 -1 -40 -8 -48 -20 -7 -10 -20 -18 -28 -18 -8 0 -14 -6
-14 -12 0 -7 -8 -26 -18 -43 -15 -27 -17 -77 -20 -550 -3 -574 -2 -562 -64
-553 -31 5 -53 -19 -60 -63 -5 -35 -24 -37 -383 -37 -360 0 -378 2 -383 38 -7
45 -28 65 -68 61 -23 -2 -40 2 -45 11 -5 7 -9 74 -9 150 0 136 0 136 -47 182
-25 25 -47 47 -47 48 -1 0 -66 4 -146 7 -145 6 -145 6 -145 121 0 115 0 115
135 118 136 3 136 3 171 35 20 17 39 45 43 61 4 16 7 361 7 768 0 737 0 738
-21 768 -12 17 -26 28 -31 25 -5 -4 -9 -326 -9 -802 0 -795 0 -795 -194 -791
-107 1 -198 7 -203 11 -4 5 -9 94 -10 198 -1 190 -1 190 -398 190 -398 0 -398
0 -399 -190 0 -104 -5 -193 -9 -198 -5 -4 -95 -9 -200 -10 -191 -1 -191 -1
-188 -202 3 -201 3 -201 -103 -201 -107 0 -107 0 -106 902 1 903 1 903 -99
900 -101 -4 -101 -4 -101 87 0 50 -4 91 -8 91 -18 0 -42 -61 -42 -107 0 -88
41 -131 137 -143 44 -5 44 -5 44 -435 0 -236 4 -623 7 -859 7 -428 7 -428 46
-462 38 -33 43 -34 120 -34 92 0 110 10 146 74 19 35 21 52 19 170 -2 73 1
137 5 144 10 16 212 17 222 0 8 -12 11 -49 18 -206 4 -102 4 -102 47 -156 52
-63 59 -66 209 -75 115 -6 115 -6 118 -93 3 -88 3 -88 -51 -88 -30 0 -95 -3
-145 -6 -91 -7 -91 -7 -100 -48 -6 -35 -12 -42 -37 -47 -39 -9 -2861 -9 -2900
0 -25 5 -31 12 -37 47 -9 41 -9 41 -85 48 -42 3 -109 6 -150 6 -74 0 -74 0
-71 93 3 92 3 92 143 97 141 5 141 5 180 49 66 72 64 67 67 232 3 154 3 154
118 154 115 0 115 0 118 -156 2 -155 2 -155 43 -197 40 -42 40 -42 215 -42
174 0 176 0 210 26 71 54 67 -6 67 1008 0 875 -1 915 -19 952 -45 90 -44 102
-44 -940 0 -986 0 -986 -206 -986 -206 0 -206 0 -203 201 3 201 3 201 -188
202 -105 1 -195 6 -200 10 -4 5 -9 94 -10 198 -1 190 -1 190 -398 190 -397 0
-397 0 -398 -190 -1 -104 -6 -193 -10 -198 -5 -4 -96 -10 -203 -12 -194 -3
-194 -3 -194 792 0 458 -4 798 -9 801 -5 3 -18 -2 -29 -12 -20 -16 -21 -29
-23 -432 -1 -228 -1 -575 0 -771 1 -357 1 -357 42 -398 41 -41 41 -41 173 -41
89 0 136 -4 144 -12 8 -8 12 -46 12 -103 0 -126 -1 -127 -157 -124 -132 3
-141 0 -208 -71 -30 -31 -30 -32 -33 -163 -4 -148 -13 -172 -64 -165 -31 5
-53 -19 -60 -62 -5 -36 -24 -38 -378 -38 -366 0 -383 2 -388 38 -7 46 -28 65
-72 61 -40 -3 -40 -3 -41 121 -7 718 -14 964 -30 986 -36 50 -91 102 -101 96
-19 -12 -250 -4 -266 8 -16 14 -15 194 2 216 7 10 40 13 135 11 145 -3 163 3
199 72 22 41 23 48 21 400 -1 358 -1 358 -24 373 -12 8 -25 12 -29 9 -3 -4 -6
-184 -6 -401 0 -394 0 -394 -194 -390 -107 1 -198 7 -203 11 -4 5 -9 94 -10
199 -1 190 -1 190 -191 192 -105 0 -194 5 -199 9 -4 5 -9 88 -11 185 -3 195
-5 204 -26 196 -22 -9 -30 -41 -35 -164 -6 -115 -6 -115 -73 -124 -37 -4 -88
-5 -112 -2 -45 7 -45 7 -48 134 -2 70 -2 425 0 790 2 663 2 663 110 660 107
-3 107 -3 113 -78 4 -41 7 -230 8 -420 1 -190 5 -350 9 -357 4 -6 16 -13 27
-15 20 -3 20 4 25 484 3 267 9 490 13 495 5 4 94 9 199 10 190 1 190 1 191
191 1 105 6 194 10 199 5 4 96 10 203 12 194 3 194 3 194 -692 0 -383 4 -698
8 -701 4 -2 12 -2 17 2 34 24 35 46 35 708 0 637 -1 657 -20 684 -41 57 -63
64 -201 61 -91 -2 -129 1 -134 10 -5 6 -10 53 -13 103 -6 125 -6 125 163 127
129 2 129 2 181 53 51 51 51 51 58 656 4 333 6 755 6 939 -1 184 3 337 7 342
4 4 65 9 134 11 136 3 164 13 171 61 4 29 35 35 183 35 167 0 178 -4 189 -54
8 -40 8 -40 145 -43 107 -2 140 -6 153 -18 16 -15 18 -44 18 -343 0 -327 0
-327 48 -382 57 -67 61 -69 232 -77 135 -6 135 -6 135 -106 0 -100 0 -100
-147 -103 -147 -3 -147 -3 -191 -47 -44 -45 -44 -45 -52 -690 -9 -802 1 -1859
18 -1895 14 -29 28 -41 39 -34 4 3 8 588 8 1300 0 1296 0 1296 201 1293 201
-3 201 -3 202 188 1 105 6 195 10 200 5 4 94 9 199 10 191 2 191 2 192 192 0
104 5 193 9 198 5 4 94 9 199 10 191 1 191 1 192 191 0 105 5 194 9 199 5 4
94 9 198 10 189 2 189 2 192 2792 1 1534 6 2793 10 2798 5 4 94 9 199 10 190
1 190 1 191 191 1 105 6 194 10 199 5 4 95 9 200 10 192 1 192 1 188 140 -1
77 0 165 4 196 7 53 9 56 39 60 58 8 544 2 553 -6z m-844 -103 c3 -4 43 -7 89
-8 83 -1 83 -1 83 -101 0 -100 0 -100 -107 -103 -107 -3 -107 -3 -110 95 -2
54 -2 104 0 111 4 12 34 17 45 6z m1132 -99 c0 -90 0 -90 -90 -90 -90 0 -90 0
-93 79 -4 111 -8 107 95 104 88 -3 88 -3 88 -93z m-1354 -400 c8 -120 6 -123
-122 -117 -97 4 -97 4 -103 40 -8 51 -8 157 1 166 4 3 54 5 112 4 106 -3 106
-3 112 -93z m1754 0 c0 -90 0 -90 -90 -90 -90 0 -90 0 -93 79 -4 111 -8 107
95 104 88 -3 88 -3 88 -93z m-2160 -3010 c0 -2700 0 -2700 -104 -2703 -77 -2
-107 1 -113 10 -4 7 -8 155 -8 329 0 174 -3 332 -7 350 -4 21 -24 51 -54 81
-45 45 -52 48 -99 48 -27 0 -50 5 -50 10 0 6 -7 10 -15 10 -8 0 -15 -4 -15
-10 0 -15 -125 -13 -138 3 -6 8 -12 261 -17 707 -7 695 -7 695 -32 733 -13 22
-22 42 -18 45 4 4 84 8 178 8 172 1 172 1 168 150 -4 191 2 222 43 239 61 26
57 -58 63 1376 6 1320 6 1320 112 1317 106 -3 106 -3 106 -2703z m2562 1736
c2 -577 6 -968 12 -975 8 -10 19 -663 11 -691 -6 -24 3 -34 44 -54 54 -27 59
-49 55 -254 -3 -139 -3 -139 168 -141 94 0 175 -4 179 -8 4 -4 -5 -23 -20 -42
-26 -35 -26 -35 -26 -380 0 -219 -4 -347 -10 -351 -6 -4 -10 -135 -10 -359 0
-353 0 -353 -138 -359 -139 -6 -139 -6 -190 -58 -52 -52 -52 -52 -54 -398 -3
-346 -3 -346 -103 -346 -100 0 -100 0 -103 2680 -1 1474 0 2686 3 2693 3 9 28
12 92 10 88 -3 88 -3 90 -967z m-2962 -1931 c0 -105 0 -105 -100 -105 -100 0
-100 0 -103 94 -4 122 -3 122 112 119 91 -3 91 -3 91 -108z m3360 -5 c0 -100
0 -100 -100 -100 -100 0 -100 0 -103 89 -4 123 -10 117 105 114 98 -3 98 -3
98 -103z m-5000 -2400 c0 -100 0 -100 -80 -100 -80 0 -80 0 -83 89 -4 121 -7
117 85 114 78 -3 78 -3 78 -103z m6600 0 c0 -100 0 -100 -80 -100 -80 0 -80 0
-83 89 -4 121 -7 117 85 114 78 -3 78 -3 78 -103z m-4960 -400 c0 -100 0 -100
-107 -103 -108 -3 -108 -3 -108 103 0 106 0 106 108 103 107 -3 107 -3 107
-103z m3363 93 c13 -13 17 -90 5 -101 -3 -4 -7 -26 -7 -50 -1 -42 -1 -42 -91
-42 -90 0 -90 0 -93 89 -2 49 -1 95 2 103 7 17 167 18 184 1z m298 -377 c5 -6
34 -11 64 -13 55 -3 55 -3 58 -78 3 -115 -4 -124 -113 -131 -120 -8 -123 -5
-117 108 3 60 9 94 20 106 16 18 72 23 88 8z m-4061 -116 c0 -100 0 -100 -107
-103 -108 -3 -108 -3 -108 103 0 106 0 106 108 103 107 -3 107 -3 107 -103z
m-2400 -2000 c0 -100 0 -100 -107 -103 -108 -3 -108 -3 -108 103 0 106 0 106
108 103 107 -3 107 -3 107 -103z m8963 -188 c3 -102 12 -94 -115 -99 -93 -4
-93 -4 -93 87 0 51 3 95 7 99 4 4 50 5 103 4 95 -3 95 -3 98 -91z m405 -305
c15 -16 16 -85 17 -686 1 -513 -1 -671 -11 -682 -9 -11 -33 -14 -108 -12 -96
3 -96 3 -101 135 -3 72 -7 133 -10 136 -3 2 -19 12 -36 20 -39 20 -44 47 -43
212 2 146 8 179 34 183 53 10 55 22 55 368 0 235 3 323 12 332 20 20 171 16
191 -6z m-370 -801 c4 -4 7 -48 5 -97 -3 -89 -3 -89 -323 -89 -320 0 -320 0
-323 89 -2 49 0 96 3 104 5 13 48 14 318 7 171 -4 316 -10 320 -14z m-8995
-873 c3 -108 3 -108 -108 -108 -110 0 -110 0 -110 110 0 111 0 111 108 108
107 -3 107 -3 110 -110z m8960 -10 c3 -98 3 -98 -103 -98 -105 0 -105 0 -105
93 0 52 3 97 7 101 4 4 50 5 103 4 95 -3 95 -3 98 -100z m-6160 -790 c3 -108
3 -108 -323 -108 -325 0 -325 0 -325 103 0 57 3 107 7 110 4 4 149 6 322 5
316 -3 316 -3 319 -110z m3800 0 c3 -108 3 -108 -323 -108 -325 0 -325 0 -325
103 0 57 3 107 7 110 4 4 149 6 322 5 316 -3 316 -3 319 -110z m-5239 -1082
c8 -9 11 -49 9 -116 -3 -113 -2 -110 -73 -129 -31 -9 -49 -23 -77 -63 -38 -52
-38 -52 -38 -168 0 -131 -12 -165 -49 -143 -13 8 -22 9 -26 3 -9 -14 -109 -12
-123 2 -8 8 -12 54 -12 137 -1 125 -1 126 -31 161 -16 19 -60 51 -97 70 -67
35 -67 35 -68 120 -1 78 1 87 24 113 26 27 26 27 288 27 212 0 264 -3 273 -14z
m6504 -3 c4 -3 26 -7 50 -7 42 -1 42 -1 42 -111 0 -110 0 -110 -32 -113 -23
-2 -49 -18 -85 -52 -53 -48 -53 -48 -58 -181 -3 -74 -9 -140 -13 -146 -5 -9
-33 -13 -80 -13 -110 1 -115 7 -119 165 -3 128 -3 128 -62 181 -39 36 -68 54
-90 56 -31 3 -31 3 -34 111 -3 109 -3 109 37 106 22 -2 43 0 47 4 9 9 388 9
397 0z m-2108 -108 c0 -100 0 -100 -1380 -100 -1380 0 -1380 0 -1383 89 -2 49
-1 95 2 103 5 11 243 13 1383 11 1378 -3 1378 -3 1378 -103z"/>
<path d="M8255 14530 c-8 -16 -15 -36 -15 -45 0 -20 -40 -35 -90 -35 -30 0
-48 -7 -72 -29 -33 -29 -33 -29 -39 -443 -4 -227 -7 -1456 -8 -2731 -1 -2453
-3 -2358 42 -2396 16 -12 17 181 17 2769 0 2782 0 2782 103 2778 100 -3 102
-3 101 20 0 12 -1 49 -2 82 -2 66 -13 76 -37 30z"/>
<path d="M7299 13393 c0 -2 -1 -91 -1 -199 -1 -197 -1 -197 197 -197 198 0
198 0 198 198 0 198 0 198 -197 199 -108 1 -196 0 -197 -1z m296 -198 c0 -100
0 -100 -100 -100 -100 0 -100 0 -103 89 -4 123 -10 117 105 114 98 -3 98 -3
98 -103z"/>
<path d="M8500 13390 c0 -3 0 -677 0 -1499 0 -1494 0 -1494 195 -1494 196 0
196 0 195 1498 0 1498 0 1498 -195 1499 -107 0 -195 -1 -195 -4z m305 -92 c3
-7 1 -641 -3 -1408 -7 -1395 -7 -1395 -107 -1395 -100 0 -100 0 -107 1395 -4
767 -5 1401 -3 1408 3 8 35 12 110 12 75 0 107 -4 110 -12z"/>
<path d="M7299 12590 c0 -3 -1 -92 -1 -199 -1 -194 -1 -194 197 -194 198 0
198 0 198 198 0 198 0 198 -197 199 -108 1 -196 -1 -197 -4z m296 -195 c0
-100 0 -100 -107 -103 -108 -3 -108 -3 -108 103 0 106 0 106 108 103 107 -3
107 -3 107 -103z"/>
<path d="M7299 11793 c0 -2 -1 -91 -1 -199 -1 -197 -1 -197 197 -197 198 0
198 0 198 198 0 198 0 198 -197 199 -108 1 -196 0 -197 -1z m296 -198 c0 -100
0 -100 -100 -100 -100 0 -100 0 -103 89 -4 123 -10 117 105 114 98 -3 98 -3
98 -103z"/>
<path d="M7299 10990 c0 -3 -1 -92 -1 -199 -1 -194 -1 -194 197 -194 198 0
198 0 198 198 0 198 0 198 -197 199 -108 1 -196 -1 -197 -4z m296 -195 c0
-100 0 -100 -107 -103 -108 -3 -108 -3 -108 103 0 106 0 106 108 103 107 -3
107 -3 107 -103z"/>
<path d="M7299 10193 c0 -2 -1 -91 -1 -199 -1 -197 -1 -197 197 -197 198 0
198 0 198 198 0 198 0 198 -197 199 -108 1 -196 0 -197 -1z m296 -198 c0 -100
0 -100 -100 -100 -100 0 -100 0 -103 89 -4 123 -10 117 105 114 98 -3 98 -3
98 -103z"/>
<path d="M8497 9993 c-1 -1 -2 -90 -1 -199 1 -197 1 -197 199 -197 198 0 198
0 198 198 0 198 0 198 -198 199 -108 1 -197 0 -198 -1z m298 -198 c0 -100 0
-100 -100 -100 -100 0 -100 0 -103 89 -4 123 -10 117 105 114 98 -3 98 -3 98
-103z"/>
<path d="M7699 8790 c-1 -3 0 -94 1 -203 2 -199 2 -199 -201 -196 -203 3 -203
3 -200 -200 3 -203 3 -203 -200 -200 -203 3 -203 3 -200 -200 3 -203 3 -203
-199 -200 -201 3 -201 3 -200 -1400 0 -1403 0 -1403 -102 -1400 -103 4 -103 4
-99 -191 1 -107 4 -196 4 -197 1 0 90 -3 197 -4 195 -4 195 -4 191 199 -3 202
-3 202 104 202 107 0 107 0 104 -202 -4 -203 -4 -203 199 -199 204 3 204 3
201 -199 -3 -202 -3 -202 796 -202 799 -1 799 -1 796 202 -3 202 -3 202 201
199 203 -4 203 -4 199 199 -3 203 -3 203 198 201 201 -1 201 -1 201 1397 1
1398 1 1398 -201 1395 -201 -3 -201 -3 -198 201 4 203 4 203 -200 199 -203 -3
-203 -3 -200 200 4 204 4 204 -200 200 -203 -3 -203 -3 -200 199 4 202 4 202
-393 204 -219 0 -399 -1 -399 -4z m544 -89 c153 1 157 -2 157 -116 0 -54 -4
-86 -13 -93 -8 -7 -115 -11 -290 -13 -335 -3 -316 -10 -320 121 -1 47 2 91 7
99 7 10 41 12 175 7 91 -3 219 -5 284 -5z m244 -314 c4 -5 9 -95 11 -200 3
-192 3 -192 182 -192 231 0 215 15 215 -195 0 -87 -4 -162 -8 -166 -4 -5 -22
0 -40 9 -30 16 -87 18 -737 18 -388 0 -714 -3 -725 -7 -24 -9 -55 -34 -55 -46
0 -4 352 -8 783 -8 970 -1 1163 -3 1174 -13 11 -11 11 -2773 0 -2784 -5 -4
-444 -9 -975 -11 -532 -1 -973 -4 -981 -7 -9 -4 -5 -12 15 -28 28 -22 28 -22
744 -27 715 -5 715 -5 753 19 20 13 41 21 45 17 14 -14 8 -344 -6 -358 -19
-19 -1555 -19 -1574 0 -10 10 -13 60 -13 200 -1 187 -1 187 -164 184 -179 -4
-212 3 -230 46 -8 19 -11 412 -9 1375 3 1349 3 1349 28 1369 23 19 36 20 200
17 175 -4 175 -4 175 179 0 241 -15 226 223 220 172 -4 172 -4 172 171 0 191
4 218 29 225 29 8 759 1 768 -7z m-892 -202 c0 -110 0 -110 -100 -110 -100 0
-100 0 -103 99 -1 55 0 106 2 113 4 11 28 13 103 11 98 -3 98 -3 98 -113z
m1180 -10 c0 -100 0 -100 -90 -100 -90 0 -90 0 -93 89 -4 122 -8 117 95 114
88 -3 88 -3 88 -103z m-1549 -276 c10 -17 4 -223 -7 -234 -6 -6 -16 -5 -29 3
-12 7 -21 8 -25 2 -8 -13 -52 -13 -61 1 -4 8 -9 8 -17 0 -6 -6 -27 -11 -47
-11 -53 0 -66 29 -62 143 2 50 5 94 8 99 8 13 232 10 240 -3z m1949 -114 c0
-90 0 -90 -100 -90 -100 0 -100 0 -103 79 -4 112 -9 107 105 104 98 -3 98 -3
98 -93z m-2353 -1170 c4 -484 10 -1067 13 -1295 5 -415 5 -415 -22 -427 -15
-7 -42 -13 -59 -13 -18 0 -49 -9 -68 -21 -21 -12 -48 -19 -68 -17 -33 3 -33 3
-36 343 -1 187 0 346 3 354 3 7 5 449 5 981 0 531 3 970 7 974 4 3 54 5 112 4
106 -3 106 -3 113 -883z m2776 873 c17 -17 17 -2569 0 -2586 -16 -16 -190 -16
-206 0 -8 8 -12 48 -12 114 0 56 -5 126 -11 155 -13 68 -12 238 2 255 6 7 6
14 1 18 -9 5 -14 73 -10 121 1 11 2 162 2 335 1 173 4 320 9 327 4 6 3 14 -3
18 -5 3 -9 23 -9 43 3 94 3 497 1 626 -1 57 3 105 9 112 7 8 6 14 -2 19 -6 4
-9 19 -5 35 3 16 1 42 -3 58 -6 21 -5 38 5 57 10 19 14 65 14 154 0 85 4 131
12 139 8 8 46 12 103 12 57 0 95 -4 103 -12z m-2930 -2703 c4 -4 2 -10 -4 -12
-38 -13 -43 -28 -50 -145 -4 -75 -12 -122 -19 -128 -8 -6 -52 -10 -106 -8 -94
3 -94 3 -94 103 0 100 0 100 47 112 63 15 70 20 66 51 -3 22 2 28 27 34 36 8
123 4 133 -7z m410 -57 c10 -10 14 -10 21 0 9 15 118 6 128 -11 11 -18 4 -198
-8 -213 -8 -10 -39 -14 -120 -14 -109 0 -109 0 -109 106 0 58 5 114 10 125 12
22 59 26 78 7z m2117 -133 c0 -100 0 -100 -110 -100 -110 0 -110 0 -113 89 -2
49 0 96 2 103 4 11 30 13 113 11 108 -3 108 -3 108 -103z m-511 -273 c5 -9 44
-8 68 3 48 20 53 7 53 -119 0 -135 -8 -151 -62 -124 -37 18 -794 16 -878 -3
-52 -11 -285 -7 -405 8 -65 8 -65 8 -65 118 0 110 0 110 254 112 139 1 256 4
259 8 9 8 770 6 776 -3z"/>
<path d="M7714 7984 c-19 -8 -4 -44 20 -49 11 -3 183 -4 381 -3 360 3 360 3
360 28 0 25 0 25 -375 27 -206 1 -380 -1 -386 -3z"/>
<path d="M7252 7543 c-23 -26 -23 -31 -20 -183 4 -158 4 -158 36 -185 18 -15
32 -34 32 -43 0 -12 3 -13 12 -4 8 8 16 8 32 0 15 -8 274 -9 946 -4 922 6 925
7 943 27 9 12 17 25 17 30 0 5 -415 9 -980 9 -980 0 -980 0 -980 190 0 105 -3
190 -7 190 -5 0 -18 -12 -31 -27z"/>
<path d="M7360 6863 c-36 -3 -52 -12 -83 -44 -39 -40 -39 -40 -37 -230 1 -191
1 -191 30 -216 17 -14 30 -32 30 -41 0 -12 3 -13 12 -4 8 8 16 8 32 0 15 -8
274 -9 946 -4 922 6 925 7 943 27 9 12 17 25 17 30 0 5 -415 9 -980 9 -980 0
-980 0 -980 205 0 205 0 205 980 205 565 0 980 4 980 9 0 5 -8 18 -17 30 -18
20 -21 20 -923 25 -498 2 -925 2 -950 -1z"/>
<path d="M7357 6063 c-38 -3 -51 -10 -69 -34 -12 -16 -28 -29 -35 -29 -10 0
-13 -42 -13 -201 0 -200 0 -200 30 -226 17 -13 30 -32 30 -41 0 -12 3 -13 12
-4 8 8 16 8 32 0 15 -8 274 -9 946 -4 922 6 925 7 943 27 9 12 17 25 17 30 0
5 -415 9 -980 9 -980 0 -980 0 -980 205 0 205 0 205 980 205 565 0 980 4 980
9 0 5 -8 18 -17 30 -18 20 -21 20 -923 25 -498 2 -926 2 -953 -1z"/>
<path d="M7360 5263 c-36 -4 -53 -12 -88 -49 -44 -44 -44 -44 -40 -198 3 -145
4 -156 25 -175 12 -12 25 -21 28 -21 3 0 5 86 5 190 0 190 0 190 980 190 565
0 980 4 980 9 0 5 -8 18 -17 30 -18 20 -21 20 -923 25 -498 2 -925 2 -950 -1z"/>
<path d="M6987 4968 c8 -9 25 -18 37 -20 15 -2 22 -12 26 -37 6 -40 30 -55 30
-19 0 13 3 39 6 60 6 36 6 36 -54 35 -57 -2 -60 -3 -45 -19z"/>
<path d="M11313 7872 c-21 -12 -44 -25 -50 -28 -7 -4 -13 -13 -13 -21 0 -8
-10 -23 -21 -32 -22 -17 -22 -17 -21 -2387 0 -3325 1 -3561 16 -3588 7 -13 27
-41 46 -62 34 -39 34 -39 225 -39 191 0 191 0 225 39 58 66 57 57 59 421 1
187 4 342 7 346 6 11 4 4127 -2 4738 -6 515 -6 515 -40 557 -55 67 -84 76
-249 78 -132 1 -146 -1 -182 -22z m387 -3077 c0 -3005 0 -3005 -205 -3005
-205 0 -205 0 -205 3005 0 3005 0 3005 205 3005 205 0 205 0 205 -3005z"/>
<path d="M4888 7872 c-166 -2 -166 -2 -211 -47 -44 -45 -44 -45 -50 -577 -9
-690 -9 -4016 0 -4705 6 -532 6 -532 45 -573 39 -40 39 -40 213 -40 169 0 175
1 211 25 66 45 63 27 64 401 0 187 2 343 5 346 3 2 5 985 5 2183 0 1198 -2
2181 -5 2183 -3 3 -5 162 -5 354 0 386 3 369 -68 424 -37 29 -37 29 -204 26z
m212 -2977 c0 -2905 0 -2905 -205 -2905 -205 0 -205 0 -205 2905 0 2905 0
2905 205 2905 205 0 205 0 205 -2905z"/>
<path d="M12461 5171 c-7 -13 -11 -140 -11 -354 0 -318 1 -336 20 -358 19 -24
19 -23 20 348 0 359 -4 411 -29 364z"/>
<path d="M9873 4793 c-173 -3 -173 -3 -175 -168 -1 -91 -2 -180 -2 -197 -1
-33 -1 -33 194 -29 107 1 196 4 196 4 1 1 4 90 5 197 4 195 4 195 -21 195 -14
1 -103 -1 -197 -2z m125 -196 c3 -117 0 -120 -125 -109 -78 7 -78 7 -81 96 -4
123 -10 117 105 114 98 -3 98 -3 101 -101z"/>
<path d="M3495 4195 c0 -195 0 -195 400 -195 400 0 400 0 400 195 0 195 0 195
-400 195 -400 0 -400 0 -400 -195z m720 0 c0 -100 0 -100 -320 -100 -320 0
-320 0 -323 89 -2 49 -1 95 2 103 5 11 65 13 323 11 318 -3 318 -3 318 -103z"/>
<path d="M5495 4195 c0 -195 0 -195 398 -195 397 0 397 0 397 195 0 195 0 195
-397 195 -398 0 -398 0 -398 -195z m713 92 c7 -8 7 -18 2 -27 -6 -8 -10 -50
-10 -92 0 -78 0 -78 -309 -78 -222 0 -312 3 -317 11 -4 7 -7 49 -7 94 0 45 3
87 7 94 11 17 620 16 634 -2z"/>
<path d="M10100 4195 c0 -195 0 -195 398 -195 397 0 397 0 397 195 0 195 0
195 -397 195 -398 0 -398 0 -398 -195z m715 0 c0 -100 0 -100 -310 -100 -310
0 -310 0 -313 89 -2 49 -1 95 2 103 5 11 63 13 313 11 308 -3 308 -3 308 -103z"/>
<path d="M6473 3993 c-173 -3 -173 -3 -175 -173 -1 -94 -2 -182 -2 -197 -1
-26 -1 -26 198 -26 199 0 199 0 199 199 0 199 0 199 -24 199 -13 1 -102 -1
-196 -2z m137 -182 c0 -123 0 -123 -121 -119 -94 3 -94 3 -97 97 -2 59 1 98 9
107 10 12 178 25 202 16 4 -2 7 -47 7 -101z"/>
<path d="M9697 3994 c-1 -1 -2 -91 -1 -200 1 -197 1 -197 200 -197 199 0 199
0 195 194 -1 107 -4 195 -5 195 -2 3 -387 10 -389 8z m291 -100 c9 -3 12 -28
10 -101 -3 -98 -3 -98 -103 -98 -100 0 -100 0 -103 98 -3 93 -2 98 20 106 21
7 147 4 176 -5z"/>
<path d="M8700 2980 c0 -990 0 -990 -405 -989 -405 0 -405 0 -405 984 0 660
-3 985 -10 985 -6 0 -19 -14 -29 -30 -16 -28 -18 -68 -24 -496 -3 -257 -3
-682 0 -945 8 -598 -15 -553 280 -564 109 -4 284 -8 388 -9 190 -1 190 -1 218
25 15 15 27 30 27 35 0 5 9 20 20 34 19 24 20 43 20 367 0 188 3 344 8 346 4
3 4 88 1 189 -4 100 -7 314 -8 474 -2 436 -8 528 -39 559 -14 14 -29 25 -33
25 -5 0 -9 -441 -9 -990z"/>
<path d="M8262 3925 c-19 -24 -20 -52 -27 -742 -10 -957 -2 -1153 46 -1153 5
0 9 409 9 960 0 528 -2 960 -4 960 -3 0 -13 -11 -24 -25z"/>
<path d="M12468 3930 c-24 -33 -27 -285 -4 -316 23 -31 27 -4 24 176 -3 160
-4 164 -20 140z"/>
</g>
</svg>
